<svg xmlns="http://www.w3.org/2000/svg" width="1240" height="271" viewBox="0 0 1240 271">
  <g id="Grupo_1015788" data-name="Grupo 1015788" transform="translate(-180 -3566)">
    <rect id="Rectángulo_346345" data-name="Rectángulo 346345" width="1240" height="271" transform="translate(180 3566)" fill="#fff"/>
    <path id="Trazado_606588" data-name="Trazado 606588" d="M3138-8948.5h719.729" transform="translate(-2685.825 12646.615)" fill="none" stroke="#566377" stroke-width="2" stroke-dasharray="4"/>
    <path id="Trazado_606589" data-name="Trazado 606589" d="M-92,0l36.7,106.114L-92,212.231H161.449L203,105.557,161.449,0Z" transform="translate(272 3591.924)" fill="#fffbe5"/>
    <path id="Trazado_606590" data-name="Trazado 606590" d="M-92,0l36.7,106.114L-92,212.231H161.449L203,105.557,161.449,0Z" transform="translate(902 3592)" fill="#fffbe5"/>
    <path id="Trazado_606591" data-name="Trazado 606591" d="M-92,0l36.7,106.114L-92,212.231H161.449L203,105.557,161.449,0Z" transform="translate(587 3592)" fill="#e3ecf7"/>
    <path id="Trazado_606592" data-name="Trazado 606592" d="M-92,0l36.7,106.114L-92,212.231H161.449L203,105.557,161.449,0Z" transform="translate(1217 3592)" fill="#e3ecf7"/>
    <g id="Grupo_1015980" data-name="Grupo 1015980">
      <text id="Facilitan_la_realización_de_actividades_relacionadas_con_una_tarea_por_ejemplo_el_uso_de_las_herramientas_de_Office_365_Google_y_otras_herramientas_sociales." data-name="Facilitan la realización de actividades relacionadas con una tarea, por ejemplo, el uso de las herramientas de Office 365, Google y otras herramientas sociales." transform="translate(241 3616.925)" fill="#12263f" font-size="16" font-family="Roboto-Regular, Roboto"><tspan x="0" y="15">Facilitan la realización de </tspan><tspan x="0" y="39">actividades relacionadas </tspan><tspan x="0" y="63">con una tarea, por </tspan><tspan x="0" y="87">ejemplo, el uso de las </tspan><tspan x="0" y="111">herramientas de </tspan><tspan y="111" font-family="Roboto-Italic, Roboto" font-style="italic">Office </tspan><tspan x="0" y="135">365, </tspan><tspan y="135" font-family="Roboto-Italic, Roboto" font-style="italic">Google </tspan><tspan y="135">y otras </tspan><tspan x="0" y="159">herramientas sociales.</tspan></text>
      <text id="Mejoran_la_calidad_de_almacenamiento_de_la_información." data-name="Mejoran la calidad de almacenamiento de la información." transform="translate(573 3665)" fill="#12263f" font-size="16" font-family="Roboto-Regular, Roboto"><tspan x="0" y="15">Mejoran la calidad </tspan><tspan x="0" y="39">de almacenamiento </tspan><tspan x="0" y="63">de la información.</tspan></text>
      <text id="Permiten_diseñar_un_sistema_ágil_de_comunicación." data-name="Permiten diseñar un sistema ágil de comunicación." transform="translate(889 3665)" fill="#12263f" font-size="16" font-family="Roboto-Regular, Roboto"><tspan x="0" y="15">Permiten diseñar un </tspan><tspan x="0" y="39">sistema ágil de </tspan><tspan x="0" y="63">comunicación.</tspan></text>
      <text id="Facilitan_la_interacción_entre_las_personas." data-name="Facilitan la interacción entre las personas." transform="translate(1216 3665)" fill="#12263f" font-size="16" font-family="Roboto-Regular, Roboto"><tspan x="0" y="15">Facilitan la </tspan><tspan x="0" y="39">interacción entre </tspan><tspan x="0" y="63">las personas.</tspan></text>
    </g>
    <path id="Trazado_606593" data-name="Trazado 606593" d="M-7669.982-8722.979l3.988,8.864-3.988,8.864" transform="translate(8204.555 12412.614)" fill="none" stroke="#627289" stroke-linecap="round" stroke-width="3"/>
    <path id="Trazado_606594" data-name="Trazado 606594" d="M-7669.982-8722.979l3.988,8.864-3.988,8.864" transform="translate(8520.555 12412.614)" fill="none" stroke="#627289" stroke-linecap="round" stroke-width="3"/>
    <path id="Trazado_606595" data-name="Trazado 606595" d="M-7669.982-8722.979l3.988,8.864-3.988,8.864" transform="translate(8834.555 12412.614)" fill="none" stroke="#627289" stroke-linecap="round" stroke-width="3"/>
  </g>
</svg>
