<svg xmlns="http://www.w3.org/2000/svg" xmlns:xlink="http://www.w3.org/1999/xlink" width="130" height="128" viewBox="0 0 130 128">
  <defs>
    <clipPath id="clip-path">
      <rect id="Rectángulo_345981" data-name="Rectángulo 345981" width="76.532" height="66.332" fill="none"/>
    </clipPath>
    <clipPath id="clip-path-2">
      <rect id="Rectángulo_346353" data-name="Rectángulo 346353" width="18.833" height="20.004" fill="none"/>
    </clipPath>
  </defs>
  <g id="Grupo_1015739" data-name="Grupo 1015739" transform="translate(-1046 -7498)">
    <g id="Grupo_1015375" data-name="Grupo 1015375" transform="translate(1046.387 7498.33)">
      <g id="Grupo_1015449" data-name="Grupo 1015449" transform="translate(0 0)">
        <g id="Grupo_1014855" data-name="Grupo 1014855" transform="translate(0 0)">
          <path id="Unión_12" data-name="Unión 12" d="M93.064,121.744A65.571,65.571,0,0,1,65,128C29.1,128,0,99.347,0,64S29.1,0,65,0s65,28.655,65,64a63.154,63.154,0,0,1-15.237,41.175L123.691,128Z" transform="translate(-0.387 -0.33)" fill="#a3bfe4"/>
          <ellipse id="Elipse_4842" data-name="Elipse 4842" cx="54" cy="54.5" rx="54" ry="54.5" transform="translate(10.613 8.67)" fill="#fffbe5"/>
        </g>
      </g>
    </g>
    <g id="Grupo_1015726" data-name="Grupo 1015726" transform="translate(1073 7528.999)">
      <path id="Trazado_605784" data-name="Trazado 605784" d="M177.186,503.065H131.657l6.166-4.185h33.2Z" transform="translate(-116.155 -440.141)" fill="#2697d3"/>
      <g id="Grupo_1015454" data-name="Grupo 1015454">
        <g id="Grupo_1015453" data-name="Grupo 1015453" clip-path="url(#clip-path)">
          <path id="Trazado_605785" data-name="Trazado 605785" d="M71.333,0H5.2A5.206,5.206,0,0,0,0,5.2V49.514a5.2,5.2,0,0,0,5.2,5.2H71.333a5.2,5.2,0,0,0,5.2-5.2V5.2a5.205,5.205,0,0,0-5.2-5.2m1.52,42.153a1.524,1.524,0,0,1-1.52,1.522H5.2a1.521,1.521,0,0,1-1.521-1.506s0-.01,0-.016V5.2A1.536,1.536,0,0,1,5.2,3.679H71.333a1.522,1.522,0,0,1,1.52,1.52Z" fill="#73b2e1"/>
          <path id="Trazado_605786" data-name="Trazado 605786" d="M99.836,31.6,31.809,70.928a1.52,1.52,0,0,1-.57-1.172c0-.005-.006-.012-.006-.017V32.782a1.536,1.536,0,0,1,1.522-1.515H98.889a1.511,1.511,0,0,1,.946.333" transform="translate(-27.556 -27.586)" fill="#f3f9ff"/>
          <path id="Trazado_605787" data-name="Trazado 605787" d="M104.721,35.277V72.234a1.527,1.527,0,0,1-1.522,1.521H37.066a1.538,1.538,0,0,1-.947-.333L104.146,34.1a1.5,1.5,0,0,1,.575,1.182" transform="translate(-31.866 -30.081)" fill="#fff"/>
          <rect id="Rectángulo_345980" data-name="Rectángulo 345980" width="33.197" height="4.027" transform="translate(21.667 54.712)" fill="#1f64ae"/>
          <path id="Trazado_605804" data-name="Trazado 605804" d="M131.182,534.424s-1.131,3.408,6.166,3.408h16.6v-3.408Z" transform="translate(-115.681 -471.5)" fill="#3874b9"/>
          <path id="Trazado_605805" data-name="Trazado 605805" d="M347.764,534.424s1.131,3.408-6.166,3.408H325v-3.408Z" transform="translate(-286.734 -471.5)" fill="#1f64ae"/>
        </g>
      </g>
    </g>
    <g id="Grupo_1015801" data-name="Grupo 1015801" transform="translate(-33.043 2884.021)">
      <path id="Trazado_606602" data-name="Trazado 606602" d="M194.923,27.782h-.95v-.761h.911c.054-.049.039-.1.039-.137,0-.271,0-.543,0-.815a1.955,1.955,0,0,1,.207-.928A1.676,1.676,0,0,1,196.6,24.2a1.988,1.988,0,0,1,.652.056c.037.01.073.025.113.039v.788c-.043.021-.073-.013-.106-.026a1.267,1.267,0,0,0-.745-.068.763.763,0,0,0-.54.407,1.176,1.176,0,0,0-.13.444c-.035.387-.011.774-.016,1.171h2.175a.161.161,0,0,0,.019-.117c0-.291,0-.583,0-.874a1.84,1.84,0,0,1,.544-1.339,1.661,1.661,0,0,1,1.054-.477,2.117,2.117,0,0,1,.7.043.309.309,0,0,1,.15.059V25.1a1.885,1.885,0,0,0-.437-.128,1.231,1.231,0,0,0-.449.025.761.761,0,0,0-.528.443,1.286,1.286,0,0,0-.119.507c-.007.339,0,.679-.005,1.019a.283.283,0,0,0,.014.054h1.3v.763h-1.312v4.85h-.9c-.007-.227,0-.457,0-.687s0-.456,0-.684v-3.47h-2.194v4.842h-.9c-.007-.172,0-.349,0-.526s0-.359,0-.538Z" transform="translate(936.178 4649.493)" fill="#dc3e15"/>
      <path id="Trazado_606603" data-name="Trazado 606603" d="M128.691,31.876a4.986,4.986,0,0,1,.453-2.164,3.377,3.377,0,0,1,2.479-1.911,4,4,0,0,1,2.022.069,3.356,3.356,0,0,1,2.222,2.109,5.4,5.4,0,0,1,.006,3.5,3.386,3.386,0,0,1-2.786,2.321,3.922,3.922,0,0,1-2.247-.251,3.4,3.4,0,0,1-1.866-2.018A4.792,4.792,0,0,1,128.691,31.876Zm6.5-.13c-.006-.11-.01-.27-.022-.429a3.736,3.736,0,0,0-.352-1.372,2.379,2.379,0,0,0-1.322-1.23,2.794,2.794,0,0,0-.929-.167,2.573,2.573,0,0,0-2.425,1.331,3.433,3.433,0,0,0-.455,1.475,4.213,4.213,0,0,0,.251,1.959,2.588,2.588,0,0,0,1.409,1.5,2.775,2.775,0,0,0,1.358.19,2.471,2.471,0,0,0,2.171-1.528,4.187,4.187,0,0,0,.315-1.725" transform="translate(993.397 4646.414)" fill="#dc3e15"/>
      <path id="Trazado_606604" data-name="Trazado 606604" d="M413.282,27.99v.82c-.037.026-.065,0-.095-.014a2.877,2.877,0,0,0-1.012-.259,1.9,1.9,0,0,0-1.593.6,3,3,0,0,0-.652,1.141,5.378,5.378,0,0,0-.239,1.642c.066-.012.07-.069.091-.106a1.853,1.853,0,0,1,.843-.8,1.927,1.927,0,0,1,.676-.167,2.561,2.561,0,0,1,.981.1,2.019,2.019,0,0,1,1.321,1.3,2.942,2.942,0,0,1-.04,2.121,2.373,2.373,0,0,1-2.4,1.524,2.133,2.133,0,0,1-1.728-.937,3.455,3.455,0,0,1-.558-1.348,7.143,7.143,0,0,1-.091-2.028,5.842,5.842,0,0,1,.44-1.845,3.455,3.455,0,0,1,1.038-1.4,2.69,2.69,0,0,1,1.664-.576,3.832,3.832,0,0,1,1.056.115,1.664,1.664,0,0,1,.3.109m-3.533,5.347a2.04,2.04,0,0,0,.507,1.31,1.436,1.436,0,0,0,1.676.365,1.453,1.453,0,0,0,.823-.983,2.366,2.366,0,0,0-.028-1.418,1.349,1.349,0,0,0-.826-.9,1.634,1.634,0,0,0-.99-.051,1.609,1.609,0,0,0-1.163,1.679" transform="translate(747.925 4646.359)" fill="#dc3e15"/>
      <path id="Trazado_606605" data-name="Trazado 606605" d="M456.654,32.819q.133-1.941.267-3.912h3.646v.785a.032.032,0,0,1-.006.008.033.033,0,0,1-.012.007.1.1,0,0,1-.028.006h-2.809c-.059.765-.111,1.526-.159,2.284a.268.268,0,0,0,.156.013,6.659,6.659,0,0,1,1.137.017,2.636,2.636,0,0,1,1.321.536,1.979,1.979,0,0,1,.72,1.23,2.839,2.839,0,0,1-.092,1.479,2.336,2.336,0,0,1-1.48,1.447,3.645,3.645,0,0,1-1.381.181,3.821,3.821,0,0,1-1.036-.15,1.985,1.985,0,0,1-.323-.133c-.041-.021-.072-.043-.072-.1,0-.29,0-.58,0-.879a.172.172,0,0,1,.111.043,3.043,3.043,0,0,0,1.287.437,2.211,2.211,0,0,0,1.143-.162A1.544,1.544,0,0,0,460,34.648a1.885,1.885,0,0,0-.046-.707,1.428,1.428,0,0,0-.884-.979,2.384,2.384,0,0,0-.838-.174,10.257,10.257,0,0,0-1.473.049.113.113,0,0,1-.1-.017" transform="translate(706.072 4645.358)" fill="#dc3e15"/>
      <path id="Trazado_606606" data-name="Trazado 606606" d="M310.693,49.04h-3.966a1.96,1.96,0,0,0,.055.568,1.781,1.781,0,0,0,.333.752,1.577,1.577,0,0,0,1.081.6,2.713,2.713,0,0,0,1.963-.486c.036-.025.073-.047.11-.07,0,0,.009,0,.015,0,.027.039.014.084.014.126,0,.184-.006.369,0,.553a.218.218,0,0,1-.123.221,2.854,2.854,0,0,1-.931.366,3.88,3.88,0,0,1-1.508.033,2.228,2.228,0,0,1-1.717-1.442,3.229,3.229,0,0,1-.22-.946,3.827,3.827,0,0,1,.163-1.638,2.605,2.605,0,0,1,1.315-1.563,2.491,2.491,0,0,1,2.026-.089,2,2,0,0,1,1.187,1.248,3.288,3.288,0,0,1,.2,1.038C310.7,48.546,310.693,48.783,310.693,49.04Zm-.928-.773a1.909,1.909,0,0,0-.3-1.113,1.063,1.063,0,0,0-.5-.408,1.492,1.492,0,0,0-1.447.151,1.952,1.952,0,0,0-.781,1.37Z" transform="translate(838.182 4630.507)" fill="#dc3e15"/>
      <path id="Trazado_606607" data-name="Trazado 606607" d="M364.96,32.025v-.731a.352.352,0,0,1,.165-.015c.3,0,.6.007.9-.026a2.423,2.423,0,0,0,.733-.181,1.2,1.2,0,0,0,.755-1.087,1.884,1.884,0,0,0-.039-.593,1.093,1.093,0,0,0-.917-.849,2.456,2.456,0,0,0-1.883.364c-.033.021-.065.043-.1.065l-.106.072c0-.16,0-.3,0-.443s0-.281,0-.424a2.8,2.8,0,0,1,.851-.344,3.517,3.517,0,0,1,1.691-.016,1.859,1.859,0,0,1,1.269.988,1.979,1.979,0,0,1,.153,1.109,1.956,1.956,0,0,1-.176.643,1.814,1.814,0,0,1-.894.863c-.118.056-.243.1-.365.147-.03.012-.069.008-.09.054a3.093,3.093,0,0,1,.546.128,1.756,1.756,0,0,1,1.211,1.239,2.122,2.122,0,0,1-.649,2.186,2.549,2.549,0,0,1-1.342.629,4.319,4.319,0,0,1-1.908-.094,2.387,2.387,0,0,1-.522-.222.128.128,0,0,1-.082-.123c0-.281,0-.563,0-.844,0-.008.009-.015.019-.031l.128.087a2.884,2.884,0,0,0,2.366.431,1.551,1.551,0,0,0,.621-.311,1.321,1.321,0,0,0,.5-.952,1.743,1.743,0,0,0-.047-.606,1.236,1.236,0,0,0-.572-.76,2.282,2.282,0,0,0-.837-.283,7.621,7.621,0,0,0-1.209-.055.414.414,0,0,1-.179-.015" transform="translate(787.003 4646.398)" fill="#dc3e15"/>
      <path id="Trazado_606608" data-name="Trazado 606608" d="M270.468,46.208v.9c-.061,0-.1-.043-.142-.069A2.281,2.281,0,0,0,269,46.7a1.815,1.815,0,0,0-1.553.983,2.192,2.192,0,0,0-.269.869,2.948,2.948,0,0,0,.1,1.238A1.775,1.775,0,0,0,269,51.045a2.289,2.289,0,0,0,1.323-.386.35.35,0,0,1,.135-.074v.832a.23.23,0,0,1-.1.065,3.006,3.006,0,0,1-2.663.064,2.351,2.351,0,0,1-1.281-1.459,3.4,3.4,0,0,1,.169-2.673,2.6,2.6,0,0,1,2.14-1.467,3.215,3.215,0,0,1,1.5.148,1.281,1.281,0,0,1,.25.114" transform="translate(872.856 4630.448)" fill="#dc3e15"/>
      <path id="Trazado_606609" data-name="Trazado 606609" d="M252.349,52.673h-.866c-.033-.11-.045-5.309-.016-5.6a5.231,5.231,0,0,1,.882-.011c.02.113.023,5.456,0,5.611" transform="translate(885.799 4629.458)" fill="#dc3e15"/>
      <path id="Trazado_606610" data-name="Trazado 606610" d="M250.494,26.617a.595.595,0,0,1,1.189.028.591.591,0,0,1-.612.572.572.572,0,0,1-.577-.6" transform="translate(886.637 4647.866)" fill="#dc3e15"/>
    </g>
    <g id="Grupo_1015802" data-name="Grupo 1015802" transform="translate(1104.015 7536.098)">
      <g id="Grupo_1015797" data-name="Grupo 1015797" clip-path="url(#clip-path-2)">
        <path id="Trazado_606601" data-name="Trazado 606601" d="M10.767,17.528c.031-.192.038-14.088.009-14.392L3.69,4.825v9.8L.043,16.045a.2.2,0,0,1-.021-.011c-.005,0-.012-.01-.013-.015A1.031,1.031,0,0,1,0,15.908Q0,9.971,0,4.043a.353.353,0,0,1,.186-.1L10.6.048A.533.533,0,0,1,10.959.02q2.856.829,5.716,1.647l.095.031V18.381c-.547.152-1.089.3-1.632.454q-2.073.572-4.145,1.143a.591.591,0,0,1-.386-.014Q5.486,18.072.364,16.187a.463.463,0,0,1-.19-.113l10.592,1.453" transform="translate(0 0)" fill="#dc3e15"/>
      </g>
    </g>
  </g>
</svg>
