<svg xmlns="http://www.w3.org/2000/svg" xmlns:xlink="http://www.w3.org/1999/xlink" width="130" height="128" viewBox="0 0 130 128">
  <defs>
    <clipPath id="clip-path">
      <rect id="Rectángulo_345981" data-name="Rectángulo 345981" width="76.532" height="66.332" fill="none"/>
    </clipPath>
    <clipPath id="clip-path-2">
      <rect id="Rectángulo_346269" data-name="Rectángulo 346269" width="33.314" height="31.736" fill="none"/>
    </clipPath>
  </defs>
  <g id="Grupo_1015729" data-name="Grupo 1015729" transform="translate(-1046 -7498)">
    <g id="Grupo_1015375" data-name="Grupo 1015375" transform="translate(1046.387 7498.33)">
      <g id="Grupo_1015449" data-name="Grupo 1015449" transform="translate(0 0)">
        <g id="Grupo_1014855" data-name="Grupo 1014855" transform="translate(0 0)">
          <path id="Unión_12" data-name="Unión 12" d="M93.064,121.744A65.571,65.571,0,0,1,65,128C29.1,128,0,99.347,0,64S29.1,0,65,0s65,28.655,65,64a63.154,63.154,0,0,1-15.237,41.175L123.691,128Z" transform="translate(-0.387 -0.33)" fill="#a3bfe4"/>
          <ellipse id="Elipse_4842" data-name="Elipse 4842" cx="54" cy="54.5" rx="54" ry="54.5" transform="translate(10.613 8.67)" fill="#fffbe5"/>
        </g>
      </g>
    </g>
    <g id="Grupo_1015726" data-name="Grupo 1015726" transform="translate(1073 7528.999)">
      <path id="Trazado_605784" data-name="Trazado 605784" d="M177.186,503.065H131.657l6.166-4.185h33.2Z" transform="translate(-116.155 -440.141)" fill="#2697d3"/>
      <g id="Grupo_1015454" data-name="Grupo 1015454">
        <g id="Grupo_1015453" data-name="Grupo 1015453" clip-path="url(#clip-path)">
          <path id="Trazado_605785" data-name="Trazado 605785" d="M71.333,0H5.2A5.206,5.206,0,0,0,0,5.2V49.514a5.2,5.2,0,0,0,5.2,5.2H71.333a5.2,5.2,0,0,0,5.2-5.2V5.2a5.205,5.205,0,0,0-5.2-5.2m1.52,42.153a1.524,1.524,0,0,1-1.52,1.522H5.2a1.521,1.521,0,0,1-1.521-1.506s0-.01,0-.016V5.2A1.536,1.536,0,0,1,5.2,3.679H71.333a1.522,1.522,0,0,1,1.52,1.52Z" fill="#73b2e1"/>
          <path id="Trazado_605786" data-name="Trazado 605786" d="M99.836,31.6,31.809,70.928a1.52,1.52,0,0,1-.57-1.172c0-.005-.006-.012-.006-.017V32.782a1.536,1.536,0,0,1,1.522-1.515H98.889a1.511,1.511,0,0,1,.946.333" transform="translate(-27.556 -27.586)" fill="#f3f9ff"/>
          <path id="Trazado_605787" data-name="Trazado 605787" d="M104.721,35.277V72.234a1.527,1.527,0,0,1-1.522,1.521H37.066a1.538,1.538,0,0,1-.947-.333L104.146,34.1a1.5,1.5,0,0,1,.575,1.182" transform="translate(-31.866 -30.081)" fill="#fff"/>
          <rect id="Rectángulo_345980" data-name="Rectángulo 345980" width="33.197" height="4.027" transform="translate(21.667 54.712)" fill="#1f64ae"/>
          <path id="Trazado_605804" data-name="Trazado 605804" d="M131.182,534.424s-1.131,3.408,6.166,3.408h16.6v-3.408Z" transform="translate(-115.681 -471.5)" fill="#3874b9"/>
          <path id="Trazado_605805" data-name="Trazado 605805" d="M347.764,534.424s1.131,3.408-6.166,3.408H325v-3.408Z" transform="translate(-286.734 -471.5)" fill="#1f64ae"/>
        </g>
      </g>
    </g>
    <g id="Grupo_1015728" data-name="Grupo 1015728" transform="translate(1095.653 7536.516)">
      <g id="Grupo_1015727" data-name="Grupo 1015727" clip-path="url(#clip-path-2)">
        <path id="Trazado_606521" data-name="Trazado 606521" d="M33.314,18.914a3.663,3.663,0,0,0-.9-2.412,3.677,3.677,0,0,0-2.5-5.631,1.472,1.472,0,0,0-.369-.047H21.9c.087-.513.193-1.1.317-1.687a9.006,9.006,0,0,0-.989-6.962A4,4,0,0,0,17.754,0a3.719,3.719,0,0,0-1.634.373,1.473,1.473,0,0,0-.782,1.476,44.047,44.047,0,0,1,.373,5.042,43.61,43.61,0,0,1-2.029,3.96,41.514,41.514,0,0,0-1.944,3.786.813.813,0,0,1-.539.572v-.048a1.473,1.473,0,0,0-1.473-1.473H1.473A1.473,1.473,0,0,0,0,15.162v15.1a1.473,1.473,0,0,0,1.473,1.473H9.724A1.473,1.473,0,0,0,11.2,30.264v-.571a20.155,20.155,0,0,0,2.767,1.031,1.466,1.466,0,0,0,.4.056H26.283A3.684,3.684,0,0,0,29.9,26.425a3.683,3.683,0,0,0,1.8-4.466,3.678,3.678,0,0,0,1.616-3.045" transform="translate(0 -0.001)" fill="#27276b"/>
        <path id="Trazado_606522" data-name="Trazado 606522" d="M96.419,11.757a2.551,2.551,0,0,1,2.21,1.459,7.569,7.569,0,0,1,.811,5.9c-.368,1.759-.589,3.462-.589,3.462h9.355l0,.011a2.205,2.205,0,0,1-.214,4.4h.311a2.206,2.206,0,1,1,0,4.411h-.565a2.206,2.206,0,0,1-.853,4.24H106.3a2.2,2.2,0,0,1-1.352,3.946H93.03a16.949,16.949,0,0,1-3.094-1.231V26.99a2.288,2.288,0,0,0,1.842-1.545c.589-1.547,3.9-7,4.052-8.03a45.288,45.288,0,0,0-.364-5.451,2.248,2.248,0,0,1,.953-.207" transform="translate(-78.665 -10.284)" fill="#fff"/>
        <rect id="Rectángulo_346268" data-name="Rectángulo 346268" width="8.251" height="15.102" transform="translate(1.473 15.161)" fill="#a1a1e2"/>
        <path id="Trazado_606523" data-name="Trazado 606523" d="M36.963,213.249a1.172,1.172,0,1,1-1.172-1.172,1.172,1.172,0,0,1,1.172,1.172" transform="translate(-30.28 -185.499)" fill="#fff"/>
      </g>
    </g>
  </g>
</svg>
