<svg xmlns="http://www.w3.org/2000/svg" xmlns:xlink="http://www.w3.org/1999/xlink" width="212.047" height="162.327" viewBox="0 0 212.047 162.327">
  <defs>
    <clipPath id="clip-path">
      <rect id="Rectángulo_345728" data-name="Rectángulo 345728" width="212.047" height="162.327" fill="none"/>
    </clipPath>
    <clipPath id="clip-path-2">
      <rect id="Rectángulo_345729" data-name="Rectángulo 345729" width="15.841" height="18.975" transform="translate(0 0)" fill="none"/>
    </clipPath>
    <clipPath id="clip-path-3">
      <rect id="Rectángulo_345730" data-name="Rectángulo 345730" width="37.989" height="12.135" fill="none"/>
    </clipPath>
    <clipPath id="clip-path-4">
      <rect id="Rectángulo_345731" data-name="Rectángulo 345731" width="39.113" height="38.291" fill="none"/>
    </clipPath>
  </defs>
  <g id="Grupo_1015810" data-name="Grupo 1015810" transform="translate(-866.333 -180.173)">
    <g id="Grupo_1015259" data-name="Grupo 1015259">
      <g id="Grupo_1015252" data-name="Grupo 1015252" transform="translate(866.333 180.173)">
        <rect id="Rectángulo_345725" data-name="Rectángulo 345725" width="64.612" height="52.957" transform="translate(131.489 19.556)" fill="#33ece0"/>
        <g id="Grupo_1015251" data-name="Grupo 1015251">
          <g id="Grupo_1015250" data-name="Grupo 1015250" clip-path="url(#clip-path)">
            <path id="Trazado_605496" data-name="Trazado 605496" d="M170.155,151.409H52.416a7.264,7.264,0,0,1-7.243-7.243V66.743A7.264,7.264,0,0,1,52.416,59.5H170.155a7.264,7.264,0,0,1,7.242,7.243v77.423a7.264,7.264,0,0,1-7.242,7.243" fill="#fff"/>
            <path id="Trazado_605497" data-name="Trazado 605497" d="M76.038,162.037H24.992a4.416,4.416,0,0,1-4.4-4.4V126.3a4.415,4.415,0,0,1,4.4-4.4H76.038a4.414,4.414,0,0,1,4.4,4.4v31.331a4.415,4.415,0,0,1-4.4,4.4" fill="#bcbcbc"/>
            <path id="Trazado_605498" data-name="Trazado 605498" d="M94.729,98.492a9.894,9.894,0,0,1,4.451-3.623,14.848,14.848,0,0,1,12.934.726l6.107,18.656s1.2,4.74,4.741,4.357,5.059-5.865,6.537-9.256,4.184-10.636,9.14-12.186c0,0,4.513-2.38,14.714-.955a25.116,25.116,0,0,1,1.533,7.8c-.028,3.723-1.219,16.352,5.255,15.557,3.557-.436,4.32-6.8,4.286-7.353s-.6-10.951-.6-10.951,7.3,10.23,9.795,16.168,4.607,11.134,4.91,14.617,1.116,7.652-2.956,10.073-7.722-.656-7.722-.656l.85,20.568H128.513l.884-24.809s-8.493,2.88-14.7.593-10.69-6.207-14.02-14.759-5.944-24.57-5.944-24.57" fill="#1a1a1a"/>
            <path id="Trazado_605499" data-name="Trazado 605499" d="M151.067,91.353l-.154-.642c-2.493-.611-1.584-2.139-1.584-2.139-1.2-.418-1.274-2.951-1.274-2.951a2.98,2.98,0,0,0,3.59-3.56c-.305-2.161-2.416-2.642-3.594-2.72a2.606,2.606,0,0,0-2,.988c-5.934-.542-8.232-7.835-8.232-7.835l-.97,7.735s-2.849.243-3.166,1.613c-.306,1.318,1.775,2.512,1.935,2.6-.037.015-.111.311.1,2.981.259,3.311,5.951,3.928,5.951,3.928L141.6,93.1a7.45,7.45,0,0,0-3.335,4.2c5.312-2.522,15.093-1.089,15.093-1.089a31.447,31.447,0,0,0-2.286-4.858" fill="#fff"/>
            <path id="Trazado_605500" data-name="Trazado 605500" d="M148.055,85.621s.073,2.787,1.274,2.951,4.955-2.1,5.643-2.951a14.662,14.662,0,0,0,3.043-7.806c.27-3.987-1.387-6.608-2.843-7.447s-5.9-2.82-7.481-1.837c0,0-2.929-1.409-5.26-.923a8.579,8.579,0,0,0-5.115,3.381s1.126,5.045,3.975,7.055a12.424,12.424,0,0,0,4.762,2.286s3.276-2.605,5.388.534c0,0,.4,4.086-1.383,4.341a7.025,7.025,0,0,0-2,.416" fill="#fff198"/>
            <path id="Trazado_605501" data-name="Trazado 605501" d="M150.581,90.921s3.286,6.138,2.985,11.919-.812,10.561-.315,12.945,2.425,5.193,5.788,4.958,4.617-2.477,5.243-6.269a36.422,36.422,0,0,0,.076-10.922,19.877,19.877,0,0,0-3.378-7.882c-1.019-1.528-4.786-6.494-4.786-6.494a5.7,5.7,0,0,1-5.613,1.745" fill="#fff198"/>
            <path id="Trazado_605502" data-name="Trazado 605502" d="M149.609,88.572s-.567,1.065,0,1.747,3.7.776,4.676.426c1.55-.553,2.2-1.545,1.954-2.774a4.737,4.737,0,0,0-1.381-2.224s-3,2.661-5.249,2.825" fill="#1a1a1a"/>
            <path id="Trazado_605503" data-name="Trazado 605503" d="M56.459,142.986a4.3,4.3,0,1,1-4.3-4.3,4.3,4.3,0,0,1,4.3,4.3" fill="#fff"/>
            <path id="Trazado_605504" data-name="Trazado 605504" d="M13.81,87.789a2.276,2.276,0,1,1-2.276-2.275,2.276,2.276,0,0,1,2.276,2.275" fill="#ffce26"/>
            <path id="Trazado_605505" data-name="Trazado 605505" d="M43.262,87.789a2.276,2.276,0,1,1-2.275-2.275,2.276,2.276,0,0,1,2.275,2.275" fill="#ffce26"/>
            <path id="Trazado_605506" data-name="Trazado 605506" d="M21.965,142.4a2.276,2.276,0,1,1-2.276-2.275,2.276,2.276,0,0,1,2.276,2.275" fill="#ffce26"/>
            <path id="Rectángulo_345726" data-name="Rectángulo 345726" d="M8.707,0H40.068a8.708,8.708,0,0,1,8.708,8.708V23.495A8.707,8.707,0,0,1,40.069,32.2H8.707A8.707,8.707,0,0,1,0,23.495V8.707A8.707,8.707,0,0,1,8.707,0Z" transform="translate(61.734 52.245)" fill="#a3bfe4"/>
            <path id="Trazado_605508" data-name="Trazado 605508" d="M147.68,113.474s-3.008,21.971-18.487,29.489l.2-5.735s13.659-4.4,18.283-23.754" fill="#1a1a1a"/>
            <path id="Trazado_605509" data-name="Trazado 605509" d="M109.737,94.255s1.117-3.527,1.424-4.425,1.89-5.37,0-5.858-2.951,3.33-3.091,3.816-.351,2.3-1.956,1.916-2.1-2.974-2.434-4.173-1.948-6.084-2.437-7.109-1.033-2.613-2.78-2.083-.448,4-.23,4.647,1.527,4.342,1.527,4.342a4.083,4.083,0,0,0-2.029.37,2.105,2.105,0,0,0-.733,1.4,8.457,8.457,0,0,0-1.576.821c-.561.422-.736,1.914-.667,2.57s.649,4.523,1.778,5.628a23.1,23.1,0,0,1,5.973-2.255,21.789,21.789,0,0,1,7.226.4" fill="#fff"/>
            <path id="Trazado_605510" data-name="Trazado 605510" d="M113.059,137.162s.055-5.923,8.245-6.2,9.209,5.591,9.209,5.591a19.48,19.48,0,0,1-8.727,2.167c-4.905,0-8.727-1.209-8.727-1.562" fill="#33ece0"/>
            <rect id="Rectángulo_345727" data-name="Rectángulo 345727" width="8.448" height="8.448" transform="translate(166.045 81.104)" fill="#983333"/>
            <path id="Trazado_605511" data-name="Trazado 605511" d="M61.774,97.15H56.529a1.559,1.559,0,0,1-1.555-1.556V90.349a1.559,1.559,0,0,1,1.555-1.555h5.245a1.559,1.559,0,0,1,1.556,1.555v5.245a1.56,1.56,0,0,1-1.556,1.556" fill="#1a1a1a"/>
            <path id="Trazado_605512" data-name="Trazado 605512" d="M65.953,116H60.707a1.559,1.559,0,0,1-1.555-1.555V109.2a1.56,1.56,0,0,1,1.555-1.556h5.246a1.56,1.56,0,0,1,1.555,1.556v5.245A1.559,1.559,0,0,1,65.953,116" fill="#ffce26"/>
            <path id="Trazado_605513" data-name="Trazado 605513" d="M141.291,78.043a12.424,12.424,0,0,0,4.762,2.286,13.128,13.128,0,0,1-5.758-11.921,7.95,7.95,0,0,0-2.979,2.58s1.125,5.045,3.975,7.055" fill="#fff"/>
            <path id="Trazado_605514" data-name="Trazado 605514" d="M153.25,115.786c.495,2.383,2.425,5.193,5.788,4.958-7.533-.706-3.5-12.174-3.658-19.094-.164-7.151-2.783-10.59-2.783-10.59a5.834,5.834,0,0,1-2.017-.138s3.287,6.137,2.985,11.919-.811,10.561-.315,12.945" fill="#fff"/>
            <path id="Trazado_605515" data-name="Trazado 605515" d="M109.951,94.144c-.267-.1-.328-.271-.26-.414a17.8,17.8,0,0,0,.809-2.6c.174-.659.337-1.281.489-1.705,1.012-2.837,1.08-3.932.958-4.354a1.28,1.28,0,0,0-.618-.789,1.338,1.338,0,0,0-1.258.142,4.04,4.04,0,0,0-1.4,2.453c-.292,1.292-.625,2.8-1.807,3.08-1.01.244-2.37-.177-3.223-3.491-.21-.8-.49-1.854-.808-2.917a36.175,36.175,0,0,0-2.125-5.611,3.165,3.165,0,0,0-.839-1.273,1.185,1.185,0,0,0-.755-.2,1.255,1.255,0,0,0-.976.512,2.35,2.35,0,0,0-.259,1.872c.353,1.414,2.145,6.328,2.163,6.377-.349.376-1.315.142-2.021.618a1.885,1.885,0,0,0-.743,1.38c-.274.25-1.178.32-1.754,1.01a2.609,2.609,0,0,0-.47,2.023.289.289,0,0,1-.257.318.324.324,0,0,1-.317-.257,3.157,3.157,0,0,1,.607-2.46,2.852,2.852,0,0,1,1.657-.928,2.337,2.337,0,0,1,.958-1.565,2.635,2.635,0,0,1,1.634-.39c-.456-1.262-1.715-4.785-2.017-5.988a2.891,2.891,0,0,1,.355-2.35,1.826,1.826,0,0,1,1.4-.747,1.639,1.639,0,0,1,1.131.315,3.154,3.154,0,0,1,.93,1.3,37.494,37.494,0,0,1,2.245,5.876c.321,1.074.6,2.134.812,2.939.6,2.3,1.446,3.346,2.532,3.076.831-.2,1.117-1.485,1.287-2.252.035-.162.068-.305.1-.42a4.545,4.545,0,0,1,1.649-2.786,1.878,1.878,0,0,1,1.823-.173,1.818,1.818,0,0,1,.916,1.146c.215.738-.1,2.279-.967,4.707-.144.4-.3,1.012-.475,1.658a17.842,17.842,0,0,1-.846,2.7.289.289,0,0,1-.26.163" fill="#1a1a1a"/>
            <path id="Trazado_605516" data-name="Trazado 605516" d="M98.469,91.261a7.6,7.6,0,0,1-1.754-4.175.317.317,0,0,1,.294-.28.287.287,0,0,1,.283.293,7.346,7.346,0,0,0,1.418,3.714.29.29,0,0,1-.081.4.3.3,0,0,1-.16.048" fill="#1a1a1a"/>
            <path id="Trazado_605517" data-name="Trazado 605517" d="M101.062,89.009a15.759,15.759,0,0,1-1.582-3.641.288.288,0,0,1,.244-.326.294.294,0,0,1,.327.242,17.623,17.623,0,0,0,1.272,3.317.285.285,0,0,1-.143.381.289.289,0,0,1-.118.027" fill="#1a1a1a"/>
            <path id="Trazado_605518" data-name="Trazado 605518" d="M96.539,96.4a12.456,12.456,0,0,1-2.1-6.573.289.289,0,0,1,.578,0,12.609,12.609,0,0,0,1.763,6.125.29.29,0,0,1-.087.4.3.3,0,0,1-.156.046" fill="#1a1a1a"/>
            <path id="Trazado_605519" data-name="Trazado 605519" d="M98.324,81.527h-31.1a9.005,9.005,0,0,1-9-9V57.745a9.007,9.007,0,0,1,9-9H98.583a9.007,9.007,0,0,1,9,9V72.532a8.735,8.735,0,0,1-5.32,8.1.288.288,0,1,1-.23-.528A8.168,8.168,0,0,0,107,72.532V57.745a8.429,8.429,0,0,0-8.418-8.42H67.221a8.429,8.429,0,0,0-8.418,8.42V72.532a8.428,8.428,0,0,0,8.418,8.418h31.1a.289.289,0,1,1,0,.577" fill="#1a1a1a"/>
            <path id="Trazado_605521" data-name="Trazado 605521" d="M79.5,162.327a.289.289,0,1,1,0-.577,3.837,3.837,0,0,0,3.831-3.834v-14.93a.289.289,0,0,1,.578,0v14.93a4.416,4.416,0,0,1-4.409,4.411" fill="#1a1a1a"/>
            <path id="Trazado_605522" data-name="Trazado 605522" d="M27.889,162.327a4.418,4.418,0,0,1-4.411-4.411V126.024a4.418,4.418,0,0,1,4.411-4.411H79.5a4.416,4.416,0,0,1,4.409,4.411v4.942a.289.289,0,1,1-.578,0v-4.942a3.836,3.836,0,0,0-3.831-3.833H27.889a3.837,3.837,0,0,0-3.834,3.833v31.892a3.837,3.837,0,0,0,3.834,3.834.288.288,0,1,1,0,.577" fill="#1a1a1a"/>
            <path id="Trazado_605523" data-name="Trazado 605523" d="M53.764,146.744a4.512,4.512,0,1,1,4.512-4.512,4.517,4.517,0,0,1-4.512,4.512m0-8.446a3.935,3.935,0,1,0,3.934,3.934,3.939,3.939,0,0,0-3.934-3.934" fill="#1a1a1a"/>
            <path id="Trazado_605524" data-name="Trazado 605524" d="M138.981,76.508c-.326-.244-.3-.419-.179-.513a1.646,1.646,0,0,1,.785-.261.288.288,0,0,1,.074.571,1.261,1.261,0,0,0-.515.152.294.294,0,0,1-.165.051" fill="#1a1a1a"/>
            <path id="Trazado_605525" data-name="Trazado 605525" d="M139.426,78.364c-.228-.049-.387.041-.5.865-.124.919.106,1.1.314,1.1s.431-.27.456-.93.028-.969-.271-1.033" fill="#1a1a1a"/>
            <path id="Trazado_605526" data-name="Trazado 605526" d="M148.536,85.909a3.422,3.422,0,0,1-1.971-.622.288.288,0,0,1,.333-.471,2.851,2.851,0,1,0-.778-3.851.286.286,0,0,1-.4.09.29.29,0,0,1-.09-.4,3.429,3.429,0,1,1,2.9,5.253" fill="#1a1a1a"/>
            <path id="Trazado_605527" data-name="Trazado 605527" d="M149.318,84.192c-.16-.048-2.322-1.476-2.322-1.476-.012-.473,2.161-2.084,2.161-2.084a.289.289,0,0,1,.344.464l-1.843,1.365,1.82,1.2a.289.289,0,0,1-.16.529" fill="#1a1a1a"/>
            <path id="Trazado_605528" data-name="Trazado 605528" d="M142.708,93.308a.292.292,0,0,1-.289-.3l.069-1.828a.289.289,0,1,1,.578.02L143,93.03a.291.291,0,0,1-.289.278" fill="#1a1a1a"/>
            <path id="Trazado_605529" data-name="Trazado 605529" d="M128.514,162.327a.29.29,0,0,1-.289-.285c-.057-4.422.556-17.35.929-24.662a.287.287,0,0,1,.287-.274.29.29,0,0,1,.287.3c-.37,7.306-.982,20.22-.925,24.626a.29.29,0,0,1-.286.292Z" fill="#1a1a1a"/>
            <path id="Trazado_605530" data-name="Trazado 605530" d="M168.7,162.327c-.3-.4-1.675-14.411-.954-25.232.718-10.78.008-25.381,0-25.528-.1-2.047-1.927-8.233-4.556-10.754a.289.289,0,0,1,.4-.415c2.678,2.57,4.613,8.761,4.73,11.141.009.147.721,14.781,0,25.6-.718,10.772.651,24.736.666,24.875a.29.29,0,0,1-.259.316l-.028,0" fill="#1a1a1a"/>
            <path id="Trazado_605531" data-name="Trazado 605531" d="M120.955,139.008a19.777,19.777,0,0,1-14.3-5.7c-4.6-4.7-6.872-11.181-8.483-16.9a157.156,157.156,0,0,1-3.693-17.683c.076-.529,2.107-4.617,9.222-5.259,6.4-.581,8.547,1.837,8.636,1.945.055.1,6.165,18.768,6.165,18.768.484,1.5.939,2.915,2.3,3.693a3.7,3.7,0,0,0,4.232-.455,10.091,10.091,0,0,0,2.51-4c.313-.758.621-1.524.928-2.29a69.425,69.425,0,0,1,3.3-7.372c1.842-3.379,4.112-5.683,6.748-6.847a18.82,18.82,0,0,1,8.028-1.437,33.6,33.6,0,0,1,6.094.348.287.287,0,1,1-.1.566,33.009,33.009,0,0,0-6.01-.337,18.46,18.46,0,0,0-7.783,1.388c-2.517,1.111-4.7,3.33-6.476,6.6a68.506,68.506,0,0,0-3.273,7.31c-.308.768-.616,1.534-.932,2.295a10.54,10.54,0,0,1-2.672,4.227,4.267,4.267,0,0,1-4.888.511c-1.556-.887-2.068-2.479-2.563-4.015l-6.09-18.61c-.291-.288-2.463-2.213-8.11-1.706-6.245.565-8.409,3.95-8.721,4.5a156.886,156.886,0,0,0,3.695,17.709c1.59,5.65,3.825,12.047,8.338,16.654,5.255,5.359,13.613,6.967,21.82,4.183l.917-.281c13.816-5.427,17.467-23.209,17.5-23.387a.289.289,0,0,1,.568.109c-.038.183-3.75,18.273-17.879,23.822l-.93.286a25.28,25.28,0,0,1-8.1,1.372" fill="#1a1a1a"/>
            <path id="Trazado_605532" data-name="Trazado 605532" d="M172.5,143.239a9.235,9.235,0,0,1-4.816-1.536.289.289,0,0,1,.338-.468c.21.148,5.131,3.618,9.054-.724,4.93-5.447-3.883-25.247-11.86-36.851a.288.288,0,1,1,.475-.327c8.291,12.06,17.007,31.825,11.813,37.564a6.553,6.553,0,0,1-5,2.342" fill="#1a1a1a"/>
            <path id="Trazado_605533" data-name="Trazado 605533" d="M143.5,91.479c-2.849,0-6.768-.351-7.884-3.383a6.908,6.908,0,0,1-.379-2.569c.064-.47.1-.742.117-.9-.589-.345-2.207-1.441-1.929-2.987.242-1.342,2.393-1.625,3.165-1.685l.941-7.5a.285.285,0,0,1,.322-.251.289.289,0,0,1,.25.322l-.97,7.735c-1.015.278-2.974.549-3.141,1.478-.239,1.328,1.561,2.34,1.767,2.451.211.179.2.339.089,1.1a6.342,6.342,0,0,0,.31,2.606c.991,2.695,4.665,3,7.342,3a.289.289,0,1,1,0,.577" fill="#1a1a1a"/>
            <path id="Trazado_605534" data-name="Trazado 605534" d="M189.921,162.327H.289a.288.288,0,1,1,0-.577H189.921a.288.288,0,1,1,0,.577" fill="#1a1a1a"/>
            <path id="Trazado_605535" data-name="Trazado 605535" d="M12.224,34.737a1.255,1.255,0,1,0-1.255-1.255,1.255,1.255,0,0,0,1.255,1.255" fill="#636363"/>
            <path id="Trazado_605536" data-name="Trazado 605536" d="M21.981,34.8a1.32,1.32,0,1,0-1.321-1.32,1.321,1.321,0,0,0,1.321,1.32" fill="#636363"/>
            <path id="Trazado_605537" data-name="Trazado 605537" d="M31.738,34.7a1.223,1.223,0,1,0-1.223-1.223A1.223,1.223,0,0,0,31.738,34.7" fill="#636363"/>
            <path id="Trazado_605538" data-name="Trazado 605538" d="M12.224,44.559a1.32,1.32,0,1,0-1.32-1.32,1.32,1.32,0,0,0,1.32,1.32" fill="#636363"/>
            <path id="Trazado_605539" data-name="Trazado 605539" d="M21.981,44.624A1.385,1.385,0,1,0,20.6,43.239a1.386,1.386,0,0,0,1.385,1.385" fill="#636363"/>
            <path id="Trazado_605540" data-name="Trazado 605540" d="M31.738,44.526a1.288,1.288,0,1,0-1.288-1.288,1.288,1.288,0,0,0,1.288,1.288" fill="#636363"/>
            <path id="Trazado_605541" data-name="Trazado 605541" d="M12.224,54.218A1.223,1.223,0,1,0,11,52.995a1.222,1.222,0,0,0,1.223,1.223" fill="#636363"/>
            <path id="Trazado_605542" data-name="Trazado 605542" d="M21.981,54.283a1.288,1.288,0,1,0-1.288-1.288,1.288,1.288,0,0,0,1.288,1.288" fill="#636363"/>
            <path id="Trazado_605543" data-name="Trazado 605543" d="M31.738,54.2a1.2,1.2,0,1,0-1.2-1.2,1.2,1.2,0,0,0,1.2,1.2" fill="#636363"/>
            <path id="Trazado_605544" data-name="Trazado 605544" d="M125.363,151.7H83.616a.289.289,0,1,1,0-.577h41.747a.289.289,0,1,1,0,.577" fill="#1a1a1a"/>
            <path id="Trazado_605545" data-name="Trazado 605545" d="M170.481,151.7a.289.289,0,1,1,0-.577,6.636,6.636,0,0,0,6.628-6.628V140.7a.289.289,0,0,1,.578,0v3.788a7.213,7.213,0,0,1-7.206,7.205" fill="#1a1a1a"/>
            <path id="Trazado_605546" data-name="Trazado 605546" d="M177.4,127.163a.289.289,0,0,1-.289-.289V100.605a.289.289,0,0,1,.578,0v26.269a.289.289,0,0,1-.289.289" fill="#1a1a1a"/>
            <path id="Trazado_605547" data-name="Trazado 605547" d="M177.4,90.816a.289.289,0,0,1-.289-.289V66.417a6.636,6.636,0,0,0-6.628-6.628H111.746a.289.289,0,0,1,0-.578H170.48a7.214,7.214,0,0,1,7.206,7.206v24.11a.289.289,0,0,1-.289.289" fill="#1a1a1a"/>
            <path id="Trazado_605548" data-name="Trazado 605548" d="M45.173,121.844a.289.289,0,0,1-.289-.29V66.418a7.213,7.213,0,0,1,7.206-7.206h4.394a.289.289,0,0,1,0,.578H52.09a6.635,6.635,0,0,0-6.628,6.628v55.136a.29.29,0,0,1-.289.29" fill="#1a1a1a"/>
            <path id="Trazado_605549" data-name="Trazado 605549" d="M191.915,78.805H177.4a.289.289,0,0,1,0-.578h14.229V25.849H180.667a.289.289,0,1,1,0-.578h11.248a.289.289,0,0,1,.289.289V78.516a.289.289,0,0,1-.289.289" fill="#1a1a1a"/>
            <path id="Trazado_605550" data-name="Trazado 605550" d="M127.3,59.79a.29.29,0,0,1-.29-.29V25.56a.29.29,0,0,1,.29-.289h33.338a.289.289,0,0,1,0,.578H127.593V59.5a.29.29,0,0,1-.289.29" fill="#1a1a1a"/>
            <path id="Trazado_605551" data-name="Trazado 605551" d="M15.6,142.685H12.278a.289.289,0,1,1,0-.577H15.6a.288.288,0,1,1,0,.577m-4.06-2.574a.288.288,0,0,1-.289-.289v-3.316a.289.289,0,1,1,.578,0v3.316a.288.288,0,0,1-.289.289m0-6.633a.289.289,0,0,1-.289-.289v-3.318a.289.289,0,0,1,.578,0v3.318a.289.289,0,0,1-.289.289m0-6.635a.289.289,0,0,1-.289-.29v-3.317a.289.289,0,1,1,.578,0v3.317a.289.289,0,0,1-.289.29m0-6.636a.288.288,0,0,1-.289-.288V116.6a.289.289,0,0,1,.578,0v3.316a.288.288,0,0,1-.289.288m0-6.633a.288.288,0,0,1-.289-.288v-3.318a.289.289,0,1,1,.578,0v3.318a.288.288,0,0,1-.289.288m0-6.634a.289.289,0,0,1-.289-.289v-3.318a.289.289,0,0,1,.578,0v3.318a.289.289,0,0,1-.289.289m0-6.636a.289.289,0,0,1-.289-.289V96.7a.289.289,0,0,1,.578,0v3.315a.289.289,0,0,1-.289.289m0-6.633a.288.288,0,0,1-.289-.289V90.065a.289.289,0,1,1,.578,0v3.317a.289.289,0,0,1-.289.289" fill="#1a1a1a"/>
            <path id="Trazado_605552" data-name="Trazado 605552" d="M38.71,88.078H35.4a.289.289,0,1,1,0-.577H38.71a.289.289,0,1,1,0,.577m-6.634,0H28.76a.289.289,0,0,1,0-.577h3.316a.289.289,0,0,1,0,.577m-6.632,0H22.125a.289.289,0,0,1,0-.577h3.319a.289.289,0,0,1,0,.577m-6.635,0H15.49a.289.289,0,0,1,0-.577h3.319a.289.289,0,0,1,0,.577" fill="#1a1a1a"/>
            <path id="Trazado_605553" data-name="Trazado 605553" d="M40.987,90.354a2.564,2.564,0,1,1,2.565-2.565,2.568,2.568,0,0,1-2.565,2.565m0-4.551a1.987,1.987,0,1,0,1.986,1.986A1.989,1.989,0,0,0,40.987,85.8" fill="#1a1a1a"/>
            <path id="Trazado_605554" data-name="Trazado 605554" d="M19.689,144.962a2.565,2.565,0,1,1,2.565-2.565,2.568,2.568,0,0,1-2.565,2.565m0-4.551a1.987,1.987,0,1,0,1.986,1.986,1.989,1.989,0,0,0-1.986-1.986" fill="#1a1a1a"/>
            <path id="Trazado_605555" data-name="Trazado 605555" d="M11.535,90.354A2.564,2.564,0,1,1,14.1,87.789a2.568,2.568,0,0,1-2.563,2.565m0-4.551a1.987,1.987,0,1,0,1.985,1.986A1.99,1.99,0,0,0,11.535,85.8" fill="#1a1a1a"/>
            <path id="Trazado_605556" data-name="Trazado 605556" d="M149.9,38.408H135.28a.289.289,0,0,1,0-.577H149.9a.289.289,0,1,1,0,.577" fill="#1a1a1a"/>
            <path id="Trazado_605557" data-name="Trazado 605557" d="M149.9,43.117H135.28a.289.289,0,0,1,0-.578H149.9a.289.289,0,1,1,0,.578" fill="#1a1a1a"/>
            <path id="Trazado_605558" data-name="Trazado 605558" d="M149.9,47.825H135.28a.289.289,0,0,1,0-.577H149.9a.289.289,0,1,1,0,.577" fill="#1a1a1a"/>
            <path id="Trazado_605559" data-name="Trazado 605559" d="M183.939,38.408H169.32a.289.289,0,0,1,0-.577h14.619a.289.289,0,1,1,0,.577" fill="#1a1a1a"/>
            <path id="Trazado_605560" data-name="Trazado 605560" d="M183.939,43.117H169.32a.289.289,0,0,1,0-.578h14.619a.289.289,0,1,1,0,.578" fill="#1a1a1a"/>
            <path id="Trazado_605561" data-name="Trazado 605561" d="M183.939,47.825H169.32a.289.289,0,0,1,0-.577h14.619a.289.289,0,1,1,0,.577" fill="#1a1a1a"/>
            <path id="Trazado_605562" data-name="Trazado 605562" d="M149.9,56.582H135.28a.289.289,0,0,1,0-.578H149.9a.289.289,0,1,1,0,.578" fill="#1a1a1a"/>
            <path id="Trazado_605563" data-name="Trazado 605563" d="M183.939,56.582H169.32a.289.289,0,0,1,0-.578h14.619a.289.289,0,1,1,0,.578" fill="#1a1a1a"/>
            <path id="Trazado_605564" data-name="Trazado 605564" d="M183.939,61.29h-9.024a.289.289,0,1,1,0-.577h9.024a.289.289,0,1,1,0,.577" fill="#1a1a1a"/>
            <path id="Trazado_605565" data-name="Trazado 605565" d="M183.939,66H177.4a.289.289,0,0,1,0-.578h6.542a.289.289,0,0,1,0,.578" fill="#1a1a1a"/>
            <path id="Trazado_605566" data-name="Trazado 605566" d="M159.608,59.3a.289.289,0,0,1-.289-.289V37.887a.29.29,0,0,1,.579,0V59.008a.29.29,0,0,1-.29.289" fill="#1a1a1a"/>
            <path id="Trazado_605567" data-name="Trazado 605567" d="M149.328,88.86c-.156-.037-1.655-.57-1.563-3.25a.306.306,0,0,1,.3-.278.291.291,0,0,1,.278.3c-.069,1.969.795,2.529,1.026,2.644a9.565,9.565,0,0,0,7.6-6.606c1.325-3.7,1.255-8.762-2.036-11.117a10.484,10.484,0,0,0-5.543-1.726c-.468-.026-.882-.038-1.264-.025a.992.992,0,0,1-.558-.011,7.473,7.473,0,0,0-9.937,2.25c.3,1.045,2.637,8.365,8.28,9a.289.289,0,0,1,.255.319.305.305,0,0,1-.319.255c-6.442-.726-8.716-9.195-8.808-9.555a8,8,0,0,1,10.784-2.787,9.871,9.871,0,0,1,1.6-.023,11.042,11.042,0,0,1,5.845,1.833c3.532,2.529,3.638,7.879,2.241,11.78a10.117,10.117,0,0,1-8.143,6.993c-.012,0-.024,0-.037,0" fill="#1a1a1a"/>
            <path id="Trazado_605568" data-name="Trazado 605568" d="M138.243,97.641c-.228-.051-.319-.208-.278-.363a6.551,6.551,0,0,1,4.072-4.367,68.238,68.238,0,0,1,8.993-1.842.287.287,0,1,1,.074.57,67.557,67.557,0,0,0-8.9,1.825c-2.809.842-3.673,3.933-3.683,3.963a.288.288,0,0,1-.278.214" fill="#1a1a1a"/>
            <path id="Trazado_605569" data-name="Trazado 605569" d="M151.834,91.366a2.9,2.9,0,0,1-2.49-.895,2.037,2.037,0,0,1-.142-1.85.289.289,0,0,1,.532.225,1.482,1.482,0,0,0,.081,1.292c.371.516,1.285.727,2.647.628,1.644-.126,2.792-.555,3.32-1.239a1.62,1.62,0,0,0,.312-1.288,4.433,4.433,0,0,0-1.338-2.273.288.288,0,1,1,.372-.439,4.947,4.947,0,0,1,1.533,2.608,2.189,2.189,0,0,1-.422,1.744c-.64.83-1.9,1.32-3.734,1.461-.235.017-.458.026-.671.026" fill="#1a1a1a"/>
            <path id="Trazado_605570" data-name="Trazado 605570" d="M158.975,121.032a5.687,5.687,0,0,1-4.485-1.792c-1.853-2.121-2.29-6.051-1.409-12.745,1.041-7.907-2.461-15.283-2.5-15.356a.286.286,0,0,1,.133-.384.29.29,0,0,1,.385.132c.037.076,3.615,7.6,2.55,15.682-.857,6.515-.463,10.307,1.273,12.292a5.051,5.051,0,0,0,4.036,1.594c3.64,0,4.847-4.117,5.219-7.573a33.673,33.673,0,0,0-.074-8.377c-.794-5.5-4.261-10.14-7.317-14.232l-.656-.871a.288.288,0,1,1,.46-.347l.656.872c3.1,4.147,6.613,8.846,7.427,14.5a34.278,34.278,0,0,1,.078,8.519c-.572,5.294-2.57,8.09-5.779,8.09" fill="#1a1a1a"/>
            <path id="Trazado_605571" data-name="Trazado 605571" d="M136.456,87.442a2.857,2.857,0,0,1-.924-.149.286.286,0,0,1-.168-.369.3.3,0,0,1,.369-.171,2.136,2.136,0,0,0,2.293-.61.288.288,0,0,1,.408-.028.291.291,0,0,1,.028.407,2.582,2.582,0,0,1-2.006.92" fill="#1a1a1a"/>
            <path id="Trazado_605572" data-name="Trazado 605572" d="M185.637,142.828c-.321-.361-.232-.521-.08-.566,1.028-.295,2.081-.651,3.126-1.055a.289.289,0,1,1,.209.538c-1.063.41-2.132.771-3.176,1.071a.27.27,0,0,1-.079.012m6.2-2.389c-.329-.306-.269-.478-.126-.549.987-.475,1.963-1,2.9-1.556a.289.289,0,1,1,.295.5c-.956.566-1.948,1.1-2.947,1.579a.3.3,0,0,1-.126.03m5.71-3.377c-.326-.251-.3-.429-.169-.523.91-.654,1.778-1.34,2.584-2.039a.285.285,0,0,1,.406.03.288.288,0,0,1-.03.407c-.817.709-1.7,1.4-2.623,2.069a.28.28,0,0,1-.168.056m5-4.344c-.314-.19-.319-.372-.209-.488a32.827,32.827,0,0,0,2.137-2.493.288.288,0,1,1,.457.351c-.675.873-1.407,1.727-2.176,2.539a.288.288,0,0,1-.209.091m4.042-5.238c-.287-.129-.329-.305-.244-.442a32.106,32.106,0,0,0,1.582-2.876.288.288,0,1,1,.518.252,32.678,32.678,0,0,1-1.612,2.929.286.286,0,0,1-.244.137m2.893-5.954c-.249-.072-.326-.239-.272-.387.371-1.009.7-2.064.984-3.134a.287.287,0,1,1,.556.145c-.285,1.09-.622,2.163-1,3.187a.289.289,0,0,1-.27.189m1.686-6.4a.3.3,0,0,1-.283-.338q.146-.856.259-1.748c.062-.508.117-1.014.161-1.514a.284.284,0,0,1,.312-.262.289.289,0,0,1,.262.312c-.044.507-.1,1.02-.165,1.535-.074.6-.16,1.194-.262,1.776a.287.287,0,0,1-.284.239m.591-6.6a.289.289,0,0,1-.289-.292c0-1.378-.034-2.347-.1-3.29a.287.287,0,0,1,.266-.308c.148-.048.3.109.308.266.069.957.1,1.941.107,2.92-.006.577-.134.7-.291.7m-.474-6.607a35.706,35.706,0,0,1-.921-3.474.29.29,0,0,1,.213-.348.285.285,0,0,1,.347.213c.261,1.081.478,2.183.647,3.277a.291.291,0,0,1-.241.329.352.352,0,0,1-.045,0m-1.546-6.443c-.612-1.23-1-2.266-1.426-3.284a.289.289,0,0,1,.533-.223c.432,1.031.824,2.084,1.167,3.128a.29.29,0,0,1-.185.365.3.3,0,0,1-.089.014m-2.558-6.115c-.758-1.134-1.3-2.1-1.868-3.035a.289.289,0,1,1,.493-.3c.574.946,1.123,1.926,1.632,2.915a.288.288,0,0,1-.125.388.3.3,0,0,1-.132.033M203.731,83.7c-.876-1.019-1.551-1.9-2.244-2.737a.288.288,0,0,1,.443-.368c.7.849,1.386,1.741,2.035,2.648a.289.289,0,0,1-.234.457M199.5,78.589c-1.623-1.556-2.594-2.337-2.6-2.345a.288.288,0,0,1,.361-.45,28.562,28.562,0,0,1,2.45,2.306.289.289,0,0,1-.207.489" fill="#1a1a1a"/>
            <path id="Trazado_605573" data-name="Trazado 605573" d="M64.239,100.895H58.993a1.847,1.847,0,0,1-1.845-1.843V93.806a1.847,1.847,0,0,1,1.845-1.844h5.246a1.846,1.846,0,0,1,1.843,1.844v5.246a1.846,1.846,0,0,1-1.843,1.843m-5.246-8.356a1.268,1.268,0,0,0-1.266,1.267v5.246a1.267,1.267,0,0,0,1.266,1.265h5.246A1.266,1.266,0,0,0,65.5,99.052V93.806a1.268,1.268,0,0,0-1.266-1.267Z" fill="#1a1a1a"/>
            <path id="Trazado_605574" data-name="Trazado 605574" d="M64.239,114.692H58.993a1.847,1.847,0,0,1-1.845-1.844V107.6a1.847,1.847,0,0,1,1.845-1.844h5.246a1.846,1.846,0,0,1,1.843,1.844v5.246a1.846,1.846,0,0,1-1.843,1.844m-5.246-8.357a1.268,1.268,0,0,0-1.266,1.267v5.246a1.268,1.268,0,0,0,1.266,1.267h5.246a1.268,1.268,0,0,0,1.266-1.267V107.6a1.268,1.268,0,0,0-1.266-1.267Z" fill="#1a1a1a"/>
            <path id="Trazado_605575" data-name="Trazado 605575" d="M90.415,94.327H69.009a.289.289,0,1,1,0-.577H90.415a.289.289,0,1,1,0,.577" fill="#1a1a1a"/>
            <path id="Trazado_605576" data-name="Trazado 605576" d="M90.415,99.569H69.009a.289.289,0,1,1,0-.577H90.415a.289.289,0,1,1,0,.577" fill="#1a1a1a"/>
            <path id="Trazado_605577" data-name="Trazado 605577" d="M90.415,108.125H69.009a.289.289,0,0,1,0-.578H90.415a.289.289,0,0,1,0,.578" fill="#1a1a1a"/>
            <path id="Trazado_605578" data-name="Trazado 605578" d="M90.415,113.367H69.009a.288.288,0,1,1,0-.577H90.415a.288.288,0,1,1,0,.577" fill="#1a1a1a"/>
            <path id="Trazado_605579" data-name="Trazado 605579" d="M130.512,94.327h-21.4a.289.289,0,0,1,0-.577h21.4a.289.289,0,1,1,0,.577" fill="#1a1a1a"/>
            <path id="Trazado_605580" data-name="Trazado 605580" d="M130.512,99.569H113.384a.289.289,0,1,1,0-.577h17.128a.289.289,0,1,1,0,.577" fill="#1a1a1a"/>
            <path id="Trazado_605581" data-name="Trazado 605581" d="M130.148,108.125H116.1a.289.289,0,0,1,0-.578h14.046a.289.289,0,1,1,0,.578" fill="#1a1a1a"/>
            <path id="Trazado_605582" data-name="Trazado 605582" d="M127.911,113.367H117.838a.288.288,0,1,1,0-.577h10.073a.288.288,0,1,1,0,.577" fill="#1a1a1a"/>
            <path id="Trazado_605583" data-name="Trazado 605583" d="M113.059,137.265a.289.289,0,0,1-.29-.289c0-3.471,4.05-6.3,9.026-6.3,4.721,0,8.675,2.571,9,5.852a.29.29,0,0,1-.258.316.306.306,0,0,1-.316-.259c-.3-2.99-4-5.331-8.429-5.331-4.658,0-8.447,2.566-8.447,5.72a.289.289,0,0,1-.289.289" fill="#1a1a1a"/>
            <path id="Trazado_605584" data-name="Trazado 605584" d="M173.141,88.078h-8.448a.288.288,0,0,1-.289-.288V79.342a.288.288,0,0,1,.289-.289h8.448a.288.288,0,0,1,.288.289V87.79a.287.287,0,0,1-.288.288m-8.159-.578h7.87V79.63h-7.87Z" fill="#1a1a1a"/>
            <path id="Trazado_605585" data-name="Trazado 605585" d="M81.557,44.913c-.292-.286-.528-1.514-.612-3.577a.288.288,0,0,1,.275-.3.291.291,0,0,1,.3.275,24.32,24.32,0,0,0,.32,3.258.29.29,0,0,1-.229.339.329.329,0,0,1-.054,0m-.309-6.62a.289.289,0,0,1-.286-.3c.054-1.105.161-2.225.313-3.328a.288.288,0,1,1,.57.079c-.15,1.085-.255,2.188-.31,3.278a.286.286,0,0,1-.287.274m.915-6.565c-.219-.045-.318-.2-.28-.355.25-1.086.553-2.169.9-3.22a.284.284,0,0,1,.363-.182.287.287,0,0,1,.183.363c-.34,1.033-.638,2.1-.886,3.17a.289.289,0,0,1-.28.224m2.075-6.293c-.262-.089-.328-.259-.264-.4.446-1.021.947-2.029,1.483-3a.294.294,0,0,1,.392-.112.288.288,0,0,1,.112.392c-.529.951-1.019,1.944-1.459,2.947a.29.29,0,0,1-.264.174m3.217-5.79c-.294-.141-.328-.321-.238-.452.629-.914,1.31-1.811,2.021-2.661a.288.288,0,1,1,.442.368c-.7.838-1.37,1.719-1.988,2.619a.286.286,0,0,1-.237.126m77.8-.039c-.489-.436-1.236-1.333-2.426-2.57a.289.289,0,0,1,.007-.407.285.285,0,0,1,.408.007c1.207,1.254,1.965,2.166,2.234,2.5a.284.284,0,0,1-.043.4.277.277,0,0,1-.18.066m-4.6-4.8c-1-.823-1.842-1.554-2.685-2.25a.288.288,0,1,1,.365-.445c.853.7,1.7,1.441,2.515,2.193a.289.289,0,0,1-.2.5m-68.969-.243c-.315-.2-.318-.379-.2-.493.767-.769,1.6-1.528,2.457-2.257a.289.289,0,0,1,.373.442c-.851.718-1.665,1.465-2.423,2.223a.282.282,0,0,1-.2.085m63.846-3.98c-1.05-.7-1.962-1.334-2.888-1.935a.289.289,0,0,1,.316-.483c.932.606,1.855,1.246,2.741,1.9a.288.288,0,0,1-.169.521m-58.787-.291c-.328-.25-.3-.429-.168-.523.883-.63,1.818-1.248,2.78-1.836a.289.289,0,1,1,.3.492c-.953.58-1.876,1.191-2.745,1.814a.294.294,0,0,1-.169.053m53.222-3.324c-1.106-.584-2.088-1.1-3.059-1.578A.287.287,0,0,1,146.783,5a.284.284,0,0,1,.385-.132c.983.48,1.976,1,2.949,1.557a.288.288,0,0,1-.142.538M102.4,6.832c-.33-.3-.275-.47-.133-.543.967-.505,1.976-.993,3-1.449a.288.288,0,1,1,.233.527c-1.012.451-2.011.934-2.969,1.433a.285.285,0,0,1-.132.032m6.046-2.7c-.326-.334-.252-.5-.1-.557,1.013-.387,2.07-.76,3.142-1.11a.288.288,0,1,1,.177.548c-1.061.346-2.109.717-3.114,1.1a.31.31,0,0,1-.1.018m35.568-.071c-1.129-.438-2.17-.824-3.2-1.168A.288.288,0,0,1,141,2.341c1.045.348,2.1.738,3.13,1.16a.288.288,0,0,1-.11.555M114.759,2.091c-.32-.37-.228-.527-.073-.567,1.08-.28,2.176-.524,3.255-.728a.3.3,0,0,1,.337.23.29.29,0,0,1-.231.337c-1.066.2-2.149.442-3.216.719a.308.308,0,0,1-.072.009m22.965-.123c-1.133-.281-2.216-.516-3.291-.709A.287.287,0,0,1,134.2.925a.275.275,0,0,1,.334-.233c1.088.194,2.186.433,3.259.709a.288.288,0,0,1-.07.567M121.273.867c-.305-.413-.191-.555-.033-.574,1.105-.129,2.225-.22,3.328-.268a.272.272,0,0,1,.3.275.287.287,0,0,1-.275.3c-1.088.048-2.194.138-3.286.265a.194.194,0,0,1-.033,0M131.2.8q-1.693-.171-3.318-.22a.289.289,0,0,1-.28-.295.3.3,0,0,1,.3-.28c1.1.031,2.217.106,3.33.22a.29.29,0,0,1,.257.317A.287.287,0,0,1,131.2.8" fill="#1a1a1a"/>
          </g>
        </g>
      </g>
    </g>
    <g id="Grupo_1015254" data-name="Grupo 1015254" transform="translate(1049.333 268.121)">
      <g id="Grupo_1015253" data-name="Grupo 1015253" transform="translate(0 0)" clip-path="url(#clip-path-2)">
        <path id="Trazado_605586" data-name="Trazado 605586" d="M9.321,1.213q-.147,2-.147,4.214v7.6A23.7,23.7,0,0,0,9.387,17.7q.213.433,1.52.434h1v.84q-2.36-.093-4-.093t-3.973.093v-.84h1.12A1.889,1.889,0,0,0,6.2,17.9a1.386,1.386,0,0,0,.333-.913q.133-1.56.133-4.027V5.347q0-2.253-.093-4.134H5.217A19.74,19.74,0,0,0,1.6,1.367Q1.266,1.52,1.16,2.56L.973,4.347H.133L.16,2.76Q.16,1.8,0,0,7.2.093,8.467.093L15.841,0q-.254,2.253-.293,4.347h-.84L14.574,2.6a2.5,2.5,0,0,0-.227-1.073,1,1,0,0,0-.653-.207q-1.467-.106-3.334-.107Z" transform="translate(0 0)"/>
      </g>
    </g>
    <g id="Grupo_1015256" data-name="Grupo 1015256" transform="translate(932 242.201)">
      <g id="Grupo_1015255" data-name="Grupo 1015255" clip-path="url(#clip-path-3)">
        <path id="Trazado_605587" data-name="Trazado 605587" d="M0,13.81H.37q.546,0,.654-.264a13.972,13.972,0,0,0,.109-2.529V9.028A16.482,16.482,0,0,0,1.039,6.44Q.945,6.2.475,6.2H0V5.83q.976.041,1.928.041.794,0,1.44-.041V6.2H2.914a.869.869,0,0,0-.525.1.813.813,0,0,0-.124.5q-.029.628-.029,2.236v2.025a14.585,14.585,0,0,0,.1,2.514q.1.232.643.232h.389v.37q-.723-.041-1.575-.041Q.8,14.139,0,14.18Z" transform="translate(0 -5.396)"/>
        <path id="Trazado_605588" data-name="Trazado 605588" d="M53.49,42.507l.887-.786a1.051,1.051,0,0,1,.335-.205,2.444,2.444,0,0,1,.776-.129,2.2,2.2,0,0,1,1.087.255,1.534,1.534,0,0,1,.658.663,3.059,3.059,0,0,1,.2,1.276l-.024,1.848a3.783,3.783,0,0,0,.082,1.1.459.459,0,0,0,.432.188h.42v.34q-.626-.041-1.082-.041t-.954.041q.111-1.144.112-3.092a3.166,3.166,0,0,0-.138-1.115,1.12,1.12,0,0,0-.464-.528,1.477,1.477,0,0,0-.785-.2,1.6,1.6,0,0,0-.967.287,1.194,1.194,0,0,0-.491.634,6.857,6.857,0,0,0-.059,1.2q0,1.074.018,2a.523.523,0,0,0,.083.346.707.707,0,0,0,.484.135h.419v.34q-.994-.041-1.582-.041-.623,0-1.417.041v-.34h.422q.434,0,.508-.2a18.284,18.284,0,0,0,.073-2.435q0-1-.023-1.571a.36.36,0,0,0-.094-.258.89.89,0,0,0-.464-.07h-.422v-.34a7.115,7.115,0,0,0,.9-.158,6.567,6.567,0,0,0,.9-.305.245.245,0,0,1,.1-.023q.094,0,.094.135l-.006.223Z" transform="translate(-47.68 -38.276)"/>
        <path id="Trazado_605589" data-name="Trazado 605589" d="M151.049,4.764a6.74,6.74,0,0,0-.176,1.62h-.4v-.47a1.105,1.105,0,0,0-.123-.622,1.5,1.5,0,0,0-.642-.349,3.24,3.24,0,0,0-1.094-.185,2.151,2.151,0,0,0-1.476.475,1.553,1.553,0,0,0-.537,1.219,1.44,1.44,0,0,0,.22.806,1.245,1.245,0,0,0,.593.486,6.991,6.991,0,0,0,1.581.263,5.96,5.96,0,0,1,1.634.311,1.512,1.512,0,0,1,.681.622,1.948,1.948,0,0,1,.255,1.016,2.6,2.6,0,0,1-.986,2.031,3.882,3.882,0,0,1-2.629.851,5.773,5.773,0,0,1-1.135-.114,7.106,7.106,0,0,1-1.153-.337,12.171,12.171,0,0,0,.1-1.807h.4v.293a2.411,2.411,0,0,0,.059.7.771.771,0,0,0,.276.288,2.391,2.391,0,0,0,.769.349,3.683,3.683,0,0,0,.962.12,2.541,2.541,0,0,0,1.713-.522,1.676,1.676,0,0,0,.6-1.326,1.462,1.462,0,0,0-.205-.8,1.238,1.238,0,0,0-.575-.484,5.021,5.021,0,0,0-1.367-.241,6.351,6.351,0,0,1-1.8-.317,1.607,1.607,0,0,1-.745-.666,2.179,2.179,0,0,1-.27-1.13,2.379,2.379,0,0,1,.827-1.872,3.348,3.348,0,0,1,2.289-.728,5.61,5.61,0,0,1,1.176.126,6.218,6.218,0,0,1,1.182.384" transform="translate(-134.73 -3.936)"/>
        <path id="Trazado_605590" data-name="Trazado 605590" d="M234.073,9.138l.141.088q-.041.44-.053.968-.041,1.713-.041,2.529,0,.763.053,1.3a.466.466,0,0,0,.112.293.848.848,0,0,0,.423.123l.4.053v.34q-.857-.041-1.561-.041t-1.4.041V14.5l.5-.053q.293-.024.361-.109a1.369,1.369,0,0,0,.085-.568q.029-.747.029-2.059,0-.912-.029-1.406a.354.354,0,0,0-.1-.259.708.708,0,0,0-.408-.076h-.44v-.34q.716-.1,1.053-.191a7.984,7.984,0,0,0,.871-.3m-.469-2.6a.628.628,0,0,1,.464.2.649.649,0,0,1,.194.472.639.639,0,0,1-.194.47.632.632,0,0,1-.464.194.661.661,0,0,1-.663-.663.649.649,0,0,1,.194-.472.634.634,0,0,1,.469-.2" transform="translate(-214.855 -6.052)"/>
        <path id="Trazado_605591" data-name="Trazado 605591" d="M286.455,42.477a1.924,1.924,0,0,1,.135.618,1.819,1.819,0,0,1-.317,1.009,2.278,2.278,0,0,1-.9.782,2.771,2.771,0,0,1-1.268.3l-.276-.006a2.6,2.6,0,0,0-.489.426.466.466,0,0,0-.1.274.39.39,0,0,0,.229.35,2.2,2.2,0,0,0,.933.128q.27,0,.775-.02.722-.033,1.045-.033a1.377,1.377,0,0,1,.71.15,1.172,1.172,0,0,1,.423.523,1.953,1.953,0,0,1,.176.843,2.25,2.25,0,0,1-.4,1.26,2.8,2.8,0,0,1-1.162.967,4.027,4.027,0,0,1-1.755.364,2.9,2.9,0,0,1-1.86-.525,1.6,1.6,0,0,1-.651-1.294,1.678,1.678,0,0,1,.34-.962,6.9,6.9,0,0,0,1.026-.581,1.829,1.829,0,0,1-.619-.29.444.444,0,0,1-.138-.336.981.981,0,0,1,.135-.486,1.2,1.2,0,0,1,.387-.357l.569-.4a2.1,2.1,0,0,1-1.014-.5,1.553,1.553,0,0,1-.41-1.111,2,2,0,0,1,.305-1.081,2.078,2.078,0,0,1,.9-.77,3.409,3.409,0,0,1,1.461-.359,2.126,2.126,0,0,1,1.473.516h.493a10.175,10.175,0,0,0,1.185-.053l.065.124a4.02,4.02,0,0,0-.311.533Zm-2.49,4.665a1.185,1.185,0,0,0-.568.094,1.869,1.869,0,0,0-.6.512,1.528,1.528,0,0,0-.176.77,1.348,1.348,0,0,0,.475,1.058,1.929,1.929,0,0,0,1.318.417,2.569,2.569,0,0,0,1.143-.241,1.866,1.866,0,0,0,.765-.662,1.576,1.576,0,0,0,.272-.867,1.187,1.187,0,0,0-.19-.67.857.857,0,0,0-.454-.37,2.737,2.737,0,0,0-.615-.041Zm1.6-3.738a1.779,1.779,0,0,0-.377-1.184,1.266,1.266,0,0,0-1.855-.082,1.419,1.419,0,0,0-.344,1.013,1.852,1.852,0,0,0,.373,1.228,1.174,1.174,0,0,0,.938.445,1.194,1.194,0,0,0,.915-.374,1.472,1.472,0,0,0,.35-1.046" transform="translate(-260.712 -38.275)"/>
        <path id="Trazado_605592" data-name="Trazado 605592" d="M369.193,4.225l.769-.675a1.579,1.579,0,0,1,.531-.346,1.874,1.874,0,0,1,.631-.094,2.323,2.323,0,0,1,1.13.261,1.459,1.459,0,0,1,.663.669,3.678,3.678,0,0,1,.185,1.388l-.035,1.737a7.134,7.134,0,0,0,.047.927.325.325,0,0,0,.1.211.649.649,0,0,0,.343.094l.446.047v.34q-.569-.041-1.109-.041-.464,0-.921.041.106-1.473.106-2.9a4.566,4.566,0,0,0-.12-1.3,1.038,1.038,0,0,0-.431-.54,1.432,1.432,0,0,0-.786-.2,1.732,1.732,0,0,0-.886.232,1.34,1.34,0,0,0-.552.537,3.016,3.016,0,0,0-.106,1.033V6.672a8.562,8.562,0,0,0,.065,1.543q.064.147.469.182l.51.047v.34q-.915-.041-1.473-.041-.581,0-1.52.041v-.34l.37-.047a1.3,1.3,0,0,0,.434-.1.351.351,0,0,0,.117-.255q.041-.317.041-1.419V2.668a8.926,8.926,0,0,0-.082-1.753q-.053-.129-.475-.129h-.4V.428A7.717,7.717,0,0,0,368.7.164L369.181,0q.094,0,.094.123l-.018.24-.035,1.055q-.03.8-.029,1.236Z" transform="translate(-339.889)"/>
        <path id="Trazado_605593" data-name="Trazado 605593" d="M464.093,20.649v2.3a6.725,6.725,0,0,0,.059,1.152.677.677,0,0,0,.238.394.712.712,0,0,0,.455.141.852.852,0,0,0,.332-.067,1.223,1.223,0,0,0,.32-.2l.17.2-.572.67a2.879,2.879,0,0,1-.366.1,1.75,1.75,0,0,1-.342.035,1.588,1.588,0,0,1-.737-.156,1,1,0,0,1-.436-.4,1.631,1.631,0,0,1-.135-.754l.023-1.132V20.7q-.452,0-.933.041v-.252q.5-.194.933-.4-.006-.839-.047-1.819a9.194,9.194,0,0,0,.985-.464l.153.117q-.047.458-.1,2.165.716,0,1.168-.018l.469-.023-.065.6-.241-.006-1.127.006Z" transform="translate(-427.741 -16.477)"/>
      </g>
    </g>
    <g id="Grupo_1015258" data-name="Grupo 1015258" transform="translate(889.257 193.123)">
      <g id="Grupo_1015257" data-name="Grupo 1015257" transform="translate(0 0)" clip-path="url(#clip-path-4)">
        <path id="Trazado_605594" data-name="Trazado 605594" d="M42.811,24.665A16.777,16.777,0,1,1,26.033,7.887,16.777,16.777,0,0,1,42.811,24.665" transform="translate(-3.698 -3.151)" fill="#fff198"/>
        <path id="Trazado_605595" data-name="Trazado 605595" d="M.029,16.884H16.9V.01A16.475,16.475,0,0,0,4.658,5.274C-.659,11.01.029,16.884.029,16.884" transform="translate(0 0)" fill="#983333"/>
        <path id="Trazado_605596" data-name="Trazado 605596" d="M19.674,36.137a17.053,17.053,0,1,1,0-34.107.179.179,0,1,1,0,.358A16.7,16.7,0,1,0,28.741,33.1a.179.179,0,0,1,.2.3,16.988,16.988,0,0,1-9.263,2.732" transform="translate(-1.047 -0.811)" fill="#1a1a1a"/>
        <path id="Trazado_605597" data-name="Trazado 605597" d="M47.637,21.454a.184.184,0,0,1-.178-.2A16.707,16.707,0,0,0,30.9,2.388a.179.179,0,1,1,0-.358A17.068,17.068,0,0,1,47.815,21.3a.179.179,0,0,1-.178.156" transform="translate(-12.276 -0.811)" fill="#1a1a1a"/>
        <path id="Trazado_605598" data-name="Trazado 605598" d="M19.674,19.263H2.8a.179.179,0,0,1,0-.358H19.5V2.21a.179.179,0,0,1,.358,0V19.084a.179.179,0,0,1-.179.179" transform="translate(-1.047 -0.812)" fill="#1a1a1a"/>
      </g>
    </g>
  </g>
</svg>
