<svg id="Grupo_1015683" data-name="Grupo 1015683" xmlns="http://www.w3.org/2000/svg" xmlns:xlink="http://www.w3.org/1999/xlink" width="190" height="168.13" viewBox="0 0 190 168.13">
  <defs>
    <clipPath id="clip-path">
      <rect id="Rectángulo_346162" data-name="Rectángulo 346162" width="190" height="168.13" fill="none"/>
    </clipPath>
    <clipPath id="clip-path-3">
      <rect id="Rectángulo_346157" data-name="Rectángulo 346157" width="179.582" height="22.681" fill="none"/>
    </clipPath>
  </defs>
  <g id="Grupo_1015682" data-name="Grupo 1015682" clip-path="url(#clip-path)">
    <g id="Grupo_1015679" data-name="Grupo 1015679">
      <g id="Grupo_1015678" data-name="Grupo 1015678" clip-path="url(#clip-path)">
        <g id="Grupo_1015677" data-name="Grupo 1015677" transform="translate(5.603 145.449)" style="mix-blend-mode: multiply;isolation: isolate">
          <g id="Grupo_1015676" data-name="Grupo 1015676">
            <g id="Grupo_1015675" data-name="Grupo 1015675" clip-path="url(#clip-path-3)">
              <path id="Trazado_605971" data-name="Trazado 605971" d="M184.337,168.169c-2.947,4.184-10.392,6.839-14.222,7.619-12,2.444-25.887-.13-38-.828-15.3-.88-30.613-1.623-45.943-1.559-14.515.06-28.278,2.139-42.617,4.006-9.071,1.18-18.729,1.751-27.515-1.3-4.463-1.554-10.339-5.837-10.027-11.127.679-11.533,19.457-8.958,26.4-8.131,26.815,3.2,53.941-.064,80.853.649,9.2.244,18.567.206,27.816-.361,8.749-.534,17.355-1.454,26.186-1.46,5.711,0,14.315-.208,17.483,5.779a6.025,6.025,0,0,1-.415,6.714" transform="translate(-5.997 -155.674)" fill="#eceff1"/>
            </g>
          </g>
        </g>
      </g>
    </g>
    <rect id="Rectángulo_346159" data-name="Rectángulo 346159" width="126.106" height="82.454" transform="translate(45.146 54.631)" fill="#fff"/>
    <path id="Trazado_605972" data-name="Trazado 605972" d="M102.222,61.6l14.1-9.61h50.805v9.715Z" transform="translate(-6.714 -3.415)" fill="#3a3a3a"/>
    <g id="Grupo_1015681" data-name="Grupo 1015681">
      <g id="Grupo_1015680" data-name="Grupo 1015680" clip-path="url(#clip-path)">
        <path id="Trazado_605973" data-name="Trazado 605973" d="M177.745,53.771c-.092-2.536,1.509-6.238-1.451-8.431s-6.756-1.126-6.756-1.126c-6.4-1.572-7.644,4.659-7.644,4.659l5.32.505.52-1.243c-.2.594-.468,1.375-.468,1.375l-3.564-.419-.169.912s-.479-.089-.486.538-.225.569-.225.569A12.879,12.879,0,0,1,162.8,52.4l-2.312,1.306s.142.756,1.508,1.413c0,0,.217,4.331,3.686,4.924a6.363,6.363,0,0,1-.662.511,36.456,36.456,0,0,0,14.9-.914c-3.23-2.925-2.084-3.337-2.176-5.872" transform="translate(-10.541 -2.887)" fill="#dc9090"/>
        <path id="Trazado_605974" data-name="Trazado 605974" d="M71.116,52.352H40.023v9.21H80.9l6.175-9.132s-2.689-2.3-15.962-.078" transform="translate(-2.629 -3.375)" fill="#3a3a3a"/>
        <path id="Trazado_605975" data-name="Trazado 605975" d="M88.078,51.515l-4.5,3.075-.089,1.46-2.214.055-8.392,5.7a4.3,4.3,0,0,0-.907,3.483c.486,1.837,4.667,7.118,4.667,7.118a3.2,3.2,0,0,0,3.632.907c2.365-.8,33.486-22.729,33.486-22.729l16.085-10.989,9.069-6.154s1.677-2.376.636-3.9S134.8,22.8,134.8,22.8a4.143,4.143,0,0,0-2.112-.972c-1.1-.068-3.14,1.33-3.14,1.33L95.118,46.7Z" transform="translate(-4.721 -1.433)" fill="#fff"/>
        <path id="Trazado_605976" data-name="Trazado 605976" d="M173.374,163.4s-9.324,2.843-11.71,2.1l-3.458,1.2s-.085.671.437.711,14.781-.308,14.781-.308Z" transform="translate(-10.391 -10.732)" fill="#e8e8e8"/>
        <path id="Trazado_605977" data-name="Trazado 605977" d="M163.806,69.489l-2.86-2.388-4.583,4.372,2.775,3.615-.992,1.618-9.423-5.172-4.24,5.629s4.533,4.578,8.574,7.816,6.095,3.953,8.341,3.512l-2.382,12.1s11.24-.735,19.5.251l-.422-28.157a16.821,16.821,0,0,0-4.111-7.771s-6.551.118-10.177,4.571" transform="translate(-9.49 -4.264)" fill="#1a1a1a"/>
        <path id="Trazado_605978" data-name="Trazado 605978" d="M167.962,47.735c.011-.064-.7,2.025-.7,2.025l-3.564-.419-.169.913s.45.12.445.4c-.007.625-.36,2.958-.36,2.958s-.206.355-.478.226c-.122-.058-.379-.071-.427-.253-.059-.219.106-.628.089-.932l-2.313,1.305s.143.757,1.509,1.413c0,0,.217,4.377,3.737,4.934a4.529,4.529,0,0,0,2.351-2.247,5.146,5.146,0,0,0,.548-3.819,42.352,42.352,0,0,1-.671-6.5" transform="translate(-10.541 -3.135)" fill="#fff"/>
        <path id="Trazado_605979" data-name="Trazado 605979" d="M167.122,61.959l.213,1.986,4.061-1.827-4.167-.16Z" transform="translate(-10.977 -4.07)" fill="#fff"/>
        <path id="Trazado_605980" data-name="Trazado 605980" d="M160.84,67.412,159.5,66.319l-2.051-4.787s-3.447-1.325-4.824-1.108c0,0-.215.249.207.549a9.812,9.812,0,0,1,2.076,1.439,13.051,13.051,0,0,1,.661,2.842,17.226,17.226,0,0,0-2.379-2.624c-.422-.1.331,1.976,1.074,3.273a5.308,5.308,0,0,0,2.439,2.44,3.413,3.413,0,0,1,1.544,1.7l2.714-2.675Z" transform="translate(-10.021 -3.967)" fill="#fff"/>
        <path id="Trazado_605981" data-name="Trazado 605981" d="M147.319,72.885l-1.6-.814a5.3,5.3,0,0,0-.682-2.358,8.037,8.037,0,0,0-1.564-2.064s-.608-2.642-.854-2.387a2.159,2.159,0,0,0-.365,1.964c.2,1.146.572,2.429.3,2.485a.967.967,0,0,1-1.318-.647c-.277-.909-.784-2.543-.784-2.543l-.793-1.405s-.952,1.913-.586,2.983c0,0-1.188.9.082,3.041s5.295,5.213,5.295,5.213l3.013-3.5Z" transform="translate(-9.101 -4.277)" fill="#fff"/>
        <path id="Trazado_605982" data-name="Trazado 605982" d="M168.159,159.669l.128,3.061-6.379,2.507s2.252.474,11.709-2.1l.17-3.8Z" transform="translate(-10.634 -10.465)" fill="#fff"/>
        <path id="Trazado_605983" data-name="Trazado 605983" d="M194.69,131.9l4.461,2.164s1.233,9.138.12,11.294l-1.495-6.8-4.289-1.519Z" transform="translate(-12.709 -8.664)" fill="#fff"/>
        <path id="Trazado_605984" data-name="Trazado 605984" d="M95.732,25.874l.822-4.024.171-4.023s2.24-.012,2.7-1.471a17.485,17.485,0,0,0,.691-6.027c-.1-2.628-.135-3.477-.135-3.477s-2.782.683-7.541-2.218c0,0-1.181,4.07-1.885,4.829,0,0-2.058-1.133-2.507,1.119s2.168,2.61,2.168,2.61,1.835,5.689.087,8.025Z" transform="translate(-5.78 -0.304)" fill="#fff"/>
        <path id="Trazado_605985" data-name="Trazado 605985" d="M130.354,42.663l3.337-2.246s.466-4.677,1.716-5.518l1.145,3.044-.228-3.5s1.273-.513,1.569,2.866-4.139,6.088-5.876,7.478Z" transform="translate(-8.562 -2.26)" fill="#fff"/>
        <path id="Trazado_605986" data-name="Trazado 605986" d="M84.873,48.885,84.762,52.9l1.7-.456a8.328,8.328,0,0,0,5.061.611l2.338.736s1.865,1.136,2.231.923-1.41-2.409-1.41-2.409,1.891,1.525,2.256,1.126-.35-1.623-.974-2.279a19.856,19.856,0,0,0-2.335-1.8,7.6,7.6,0,0,1,1.564.094c.4.129,1.055.476,1.137.259s.088-1.316-1.4-1.78-2.956-.354-3.854-.7-5.736,1.25-6.2,1.662" transform="translate(-5.567 -3.098)" fill="#fff"/>
        <path id="Trazado_605987" data-name="Trazado 605987" d="M177.671,121.907l-.34-.385,1.118-18.186-17.428-.3s-2.173,13.044-2.279,17.4.393,6.856,3.579,8.421l1.373,27.255,11.548-.563,1.217-19.826,13.427,5.057,2.63-11.238Z" transform="translate(-10.426 -6.768)" fill="#afafaf"/>
        <path id="Trazado_605988" data-name="Trazado 605988" d="M165.741,68.613l-1.092-3.559,6.9-2.9,2.871-.2.884,2.766s-3.9-.543-9.566,3.889" transform="translate(-10.815 -4.07)" fill="#fff"/>
        <path id="Trazado_605989" data-name="Trazado 605989" d="M138.629,62.214l1.458,3.6s.613,3.294,1.942,3.243c.888-.033,0-2.727,0-2.727s-.434-1.5.249-1.59.934,2.109.934,2.109,2.378,1.98,2.308,4.411l1.491.991,1.131-1.413,7.148,3.867h2.244l-1.188-3.146-.69-.677.34-.308-1.107-2.88a8.482,8.482,0,0,1-2.179-3.14,19.564,19.564,0,0,1-.874-2.337,14.6,14.6,0,0,1,1.382,1.117l-.7-2.12s-1.149-.752-1.182-1.022.747-.3.747-.3L150.054,54.6l-14.445-.311Z" transform="translate(-8.907 -3.566)" fill="#fff198"/>
        <path id="Trazado_605990" data-name="Trazado 605990" d="M85.226,67.578a3.988,3.988,0,1,1-3.988-3.988,3.987,3.987,0,0,1,3.988,3.988" transform="translate(-5.074 -4.177)" fill="#983333"/>
        <path id="Trazado_605991" data-name="Trazado 605991" d="M97.157,23.037s.275.752,1.178-.4-.023-4.026-.023-4.026l-.986.132Z" transform="translate(-6.381 -1.223)" fill="#3a3a3a"/>
        <path id="Trazado_605992" data-name="Trazado 605992" d="M91.536,3.943s4.491,2.675,8.185,2.624v3.09A13.723,13.723,0,0,0,99.53,4.35C98.857,1.31,96.612-.337,92.545.521c0,0-4.056-.755-6.166,2.506s-1.2,4.313-1.08,7.1.483,10-1.342,12.088l1.548-.647a1.65,1.65,0,0,0,1.373.941c1.665,0,2.1-1.367,2.622-2.413s-.532-7.475-.532-7.475-1.5-.905-1.284-2.17c.3-1.813,1.789-1.466,1.789-1.466s2.062-3.35,2.062-5.038" transform="translate(-5.515 -0.019)" fill="#1a1a1a"/>
        <path id="Trazado_605993" data-name="Trazado 605993" d="M92.616,77.059a1.562,1.562,0,0,0-.512-.086h-.917a1.567,1.567,0,0,0-1.569,1.569l-.411,2.842-.371,2.59L87.361,94.221l-.373,2.592-1.475,10.248-.376,2.591L83.662,119.9l-.372,2.591L81.814,132.74l-.372,2.59-1.478,10.248-.372,2.591-2.258,15.683a1.568,1.568,0,0,0,1.568,1.568h.918c1.15-.33,1.57-.9,1.57-1.568L93.673,78.542a1.569,1.569,0,0,0-1.058-1.483" transform="translate(-5.079 -5.056)" fill="#ffce26"/>
        <path id="Trazado_605994" data-name="Trazado 605994" d="M77.875,145.578H52.525L54,135.33h25.35l.372-2.59H54.375l1.557-10.249H81.2l.372-2.591H56.224l1.566-10.248H83.048l.375-2.591H58.072l1.575-10.248H84.9l.372-2.592H59.783l1.642-10.249H86.747l.372-2.59H61.769c.877-3.693-.345-4.411-.345-4.411h-1.73a1.568,1.568,0,0,0-1.57,1.569l-12.283,85.31a1.567,1.567,0,0,0,1.566,1.568h1.484s1.086-.764,1.086-1.629l2.176-15.622H77.5Z" transform="translate(-3.011 -5.056)" fill="#ffce26"/>
        <path id="Trazado_605995" data-name="Trazado 605995" d="M104.076,26.466c-5.334-4-6.658-3.569-6.658-3.569s-.477,1.124-2,.432l-.993,3.71L89,22.382s-2.762,3.32-4.536.633a25.694,25.694,0,0,0-11.545,9.821c-4.25,7.034-5.99,9.691-3.909,16.048s9.61,7.6,14.236,7.2l.533-8.829s3.8-1.763,5.356-1.676A24.055,24.055,0,0,1,92.279,46a5.336,5.336,0,0,1,2.312.733l17.12-11.667a27.36,27.36,0,0,0-7.634-8.605m-25.167,16.5A9.084,9.084,0,0,1,81.18,37.3l1.093,9.069s-3.3-.25-3.364-3.4" transform="translate(-4.475 -1.47)" fill="#33ece0"/>
        <path id="Trazado_605996" data-name="Trazado 605996" d="M129.694,43.243l2.882,3.358-3.885,3.357H120.3Z" transform="translate(-7.902 -2.84)" fill="#33ece0"/>
        <path id="Trazado_605997" data-name="Trazado 605997" d="M44.89,55.841a1.169,1.169,0,1,1-1.169-1.168,1.168,1.168,0,0,1,1.169,1.168" transform="translate(-2.795 -3.591)" fill="#ffce26"/>
        <path id="Trazado_605998" data-name="Trazado 605998" d="M48.529,55.841a1.169,1.169,0,1,1-1.17-1.168,1.168,1.168,0,0,1,1.17,1.168" transform="translate(-3.034 -3.591)" fill="#ffce26"/>
        <path id="Trazado_605999" data-name="Trazado 605999" d="M52.141,55.841a1.169,1.169,0,1,1-1.169-1.168,1.168,1.168,0,0,1,1.169,1.168" transform="translate(-3.271 -3.591)" fill="#ffce26"/>
        <path id="Trazado_606000" data-name="Trazado 606000" d="M36.083,143.815a30.966,30.966,0,0,1-6.574.549c-5.295,0-9.587-.828-9.587-1.851s4.292-1.852,9.587-1.852a33.455,33.455,0,0,1,6.588.507Z" transform="translate(-1.309 -9.239)" fill="#3a3a3a"/>
        <path id="Trazado_606001" data-name="Trazado 606001" d="M19.485,76.973l6.808,34.384s-22.819-6.994-6.808-34.384" transform="translate(-0.906 -5.056)" fill="#fff"/>
        <path id="Trazado_606002" data-name="Trazado 606002" d="M0,107.731S7.107,135.074,16.892,128C26.39,121.135,8.23,108.89,0,107.731" transform="translate(0 -7.076)" fill="#fff"/>
        <path id="Trazado_606003" data-name="Trazado 606003" d="M43.736,107.731s-3.287,28.9-14.114,23.552c-10.51-5.185,6.193-21.036,14.114-23.552" transform="translate(-1.724 -7.076)" fill="#fff"/>
        <path id="Trazado_606004" data-name="Trazado 606004" d="M21.349,153.159s1.184,1.364,8.839,1.364,7.767-1.565,7.767-1.565L36.8,164.613s-1.085,1.215-7.194,1.215-7.151-1.238-7.151-1.238Z" transform="translate(-1.402 -10.047)" fill="#c2fffb"/>
        <rect id="Rectángulo_346160" data-name="Rectángulo 346160" width="19.557" height="19.557" transform="translate(106.837 68.426)" fill="#a3bfe4"/>
        <path id="Trazado_606005" data-name="Trazado 606005" d="M121.249,100.341h-19a.263.263,0,0,1,0-.526h19a.263.263,0,0,1,0,.526" transform="translate(-6.699 -6.556)" fill="#1a1a1a"/>
        <path id="Trazado_606006" data-name="Trazado 606006" d="M121.249,103.715h-19a.263.263,0,0,1,0-.526h19a.263.263,0,0,1,0,.526" transform="translate(-6.699 -6.778)" fill="#1a1a1a"/>
        <path id="Trazado_606007" data-name="Trazado 606007" d="M121.249,107.088h-19a.263.263,0,0,1,0-.526h19a.263.263,0,0,1,0,.526" transform="translate(-6.699 -6.999)" fill="#1a1a1a"/>
        <path id="Trazado_606008" data-name="Trazado 606008" d="M113.731,128.4h-19a.263.263,0,0,1,0-.526h19a.263.263,0,0,1,0,.526" transform="translate(-6.205 -8.399)" fill="#1a1a1a"/>
        <path id="Trazado_606009" data-name="Trazado 606009" d="M113.731,131.776h-19a.263.263,0,0,1,0-.526h19a.263.263,0,0,1,0,.526" transform="translate(-6.205 -8.621)" fill="#1a1a1a"/>
        <path id="Trazado_606010" data-name="Trazado 606010" d="M113.731,135.151h-19a.263.263,0,0,1,0-.526h19a.263.263,0,0,1,0,.526" transform="translate(-6.205 -8.842)" fill="#1a1a1a"/>
        <path id="Trazado_606011" data-name="Trazado 606011" d="M147.377,128.4h-19a.263.263,0,0,1,0-.526h19a.263.263,0,0,1,0,.526" transform="translate(-8.415 -8.399)" fill="#1a1a1a"/>
        <path id="Trazado_606012" data-name="Trazado 606012" d="M147.377,131.776h-19a.263.263,0,0,1,0-.526h19a.263.263,0,0,1,0,.526" transform="translate(-8.415 -8.621)" fill="#1a1a1a"/>
        <path id="Trazado_606013" data-name="Trazado 606013" d="M147.377,135.151h-19a.263.263,0,0,1,0-.526h19a.263.263,0,0,1,0,.526" transform="translate(-8.415 -8.842)" fill="#1a1a1a"/>
        <path id="Trazado_606014" data-name="Trazado 606014" d="M82.189,57.081c-6.362,0-9.538-1.881-11.094-3.506-3.629-3.792-3.819-10.132-1.905-14.071A48.069,48.069,0,0,1,72.7,33.4a.263.263,0,1,1,.434.3,47.464,47.464,0,0,0-3.468,6.034C67.826,43.511,68,49.586,71.473,53.212c2.214,2.313,6.385,3.51,11.757,3.327a.28.28,0,0,1,.27.255.264.264,0,0,1-.255.271c-.361.01-.714.016-1.057.016" transform="translate(-4.466 -2.187)" fill="#1a1a1a"/>
        <path id="Trazado_606015" data-name="Trazado 606015" d="M77.234,28.541c-.286-.178-.288-.342-.187-.447a21.383,21.383,0,0,1,7.913-5.3.263.263,0,0,1,.178.494,20.862,20.862,0,0,0-7.716,5.174.268.268,0,0,1-.188.078" transform="translate(-5.057 -1.496)" fill="#1a1a1a"/>
        <path id="Trazado_606016" data-name="Trazado 606016" d="M84.52,48.355c-.4-.156-.73-.286-1.069-.42-1.445-.575-3.082-1.226-3.715-2.53-1.8-3.71,3.9-9.947,4.146-10.211a.262.262,0,0,1,.385.357c-.056.062-5.7,6.235-4.06,9.625.544,1.12,2.08,1.732,3.436,2.27.347.138.68.271.983.405a.263.263,0,0,1-.107.5" transform="translate(-5.214 -2.306)" fill="#1a1a1a"/>
        <path id="Trazado_606017" data-name="Trazado 606017" d="M83.172,47.664c-.26-.232-1.354-9.3-1.354-9.3a.261.261,0,0,1,.229-.292.255.255,0,0,1,.292.228l1.094,9.069a.261.261,0,0,1-.229.292l-.032,0" transform="translate(-5.374 -2.5)" fill="#1a1a1a"/>
        <path id="Trazado_606018" data-name="Trazado 606018" d="M106.322,41.262a.267.267,0,0,1-.261-.29,20.9,20.9,0,0,0-1.61-11.171.263.263,0,0,1,.107-.356.265.265,0,0,1,.355.107c.1.18,2.392,4.523,1.669,11.473a.262.262,0,0,1-.261.235" transform="translate(-6.859 -1.932)" fill="#1a1a1a"/>
        <path id="Trazado_606019" data-name="Trazado 606019" d="M113.764,35.355c-5.389-8.883-11.172-11.41-14.16-12.137a.262.262,0,0,1-.193-.316.254.254,0,0,1,.318-.192c3.068.745,9,3.329,14.261,12.249a.263.263,0,0,1-.092.359.27.27,0,0,1-.134.037" transform="translate(-6.529 -1.491)" fill="#1a1a1a"/>
        <path id="Trazado_606020" data-name="Trazado 606020" d="M100.07,11.386a.256.256,0,0,0,.261-.251l.014-.72a.257.257,0,0,0-.513-.009l-.013.721a.256.256,0,0,0,.251.26" transform="translate(-6.556 -0.667)" fill="#1a1a1a"/>
        <path id="Trazado_606021" data-name="Trazado 606021" d="M95.532,11.3a.257.257,0,0,0,.261-.249l.013-.721a.256.256,0,0,0-.512-.01l-.013.721a.256.256,0,0,0,.251.26" transform="translate(-6.258 -0.661)" fill="#1a1a1a"/>
        <path id="Trazado_606022" data-name="Trazado 606022" d="M89.739,13.7a1.766,1.766,0,0,1-.844-.209,2.535,2.535,0,0,1-1.2-1.87c-.181-1.369.389-2.322,1.491-2.49a1.7,1.7,0,0,1,1.634.913.262.262,0,0,1-.463.246c-.017-.03-.414-.747-1.093-.639-1.184.178-1.1,1.5-1.048,1.9a2.02,2.02,0,0,0,.924,1.475,1.529,1.529,0,0,0,1.441-.075.262.262,0,0,1,.232.471,2.425,2.425,0,0,1-1.075.276" transform="translate(-5.758 -0.599)" fill="#1a1a1a"/>
        <path id="Trazado_606023" data-name="Trazado 606023" d="M89.442,12.779c-.3-.231-.268-.4-.149-.478l.892-.622-1.278-1.093a.261.261,0,0,1-.029-.369.258.258,0,0,1,.37-.028L90.784,11.5c-.021.415-1.191,1.23-1.191,1.23a.276.276,0,0,1-.15.046" transform="translate(-5.834 -0.665)" fill="#1a1a1a"/>
        <path id="Trazado_606024" data-name="Trazado 606024" d="M40.043,36.707c-.186-.078-3.078-2.969-3.078-2.969a.263.263,0,0,1,.372-.372l2.892,2.892a.263.263,0,0,1-.186.449" transform="translate(-2.423 -2.186)" fill="#1a1a1a"/>
        <path id="Trazado_606025" data-name="Trazado 606025" d="M37.153,36.707c-.288-.18-.288-.347-.186-.449l2.892-2.892a.263.263,0,0,1,.372.372l-2.892,2.892a.264.264,0,0,1-.186.078" transform="translate(-2.424 -2.186)" fill="#1a1a1a"/>
        <path id="Trazado_606026" data-name="Trazado 606026" d="M43.863,31.785a1.09,1.09,0,1,1,1.088-1.09,1.091,1.091,0,0,1-1.088,1.09m0-1.654a.564.564,0,1,0,.564.563.565.565,0,0,0-.564-.563" transform="translate(-2.81 -1.945)" fill="#1a1a1a"/>
        <path id="Trazado_606027" data-name="Trazado 606027" d="M192.28,70.215a1.09,1.09,0,1,1,1.088-1.09,1.093,1.093,0,0,1-1.088,1.09m0-1.654a.564.564,0,1,0,.564.563.566.566,0,0,0-.564-.563" transform="translate(-12.558 -4.469)" fill="#1a1a1a"/>
        <path id="Trazado_606028" data-name="Trazado 606028" d="M96.782,16.566a1.913,1.913,0,0,1-.827-.189A1.946,1.946,0,0,1,94.916,15a1.208,1.208,0,0,1,.165-1.021.84.84,0,0,1,1.387.4c.139.361.172.375.243.409a1.166,1.166,0,0,0,.466-.072.974.974,0,0,1,1.032.217.736.736,0,0,1,.155.6,1.579,1.579,0,0,1-1.584,1.037m-1.148-2.327a.56.56,0,0,0-.2.653A1.45,1.45,0,0,0,96.18,15.9a1.393,1.393,0,0,0,.6.139,1.131,1.131,0,0,0,1.065-.6.37.37,0,0,0-.505-.238c-.562.184-.723.107-.854.047-.224-.106-.323-.215-.507-.692a.454.454,0,0,0-.347-.323" transform="translate(-6.232 -0.902)" fill="#1a1a1a"/>
        <path id="Trazado_606029" data-name="Trazado 606029" d="M164.977,52.865a.259.259,0,0,1-.236-.275l.055-.718a.256.256,0,1,1,.51.039l-.054.718a.258.258,0,0,1-.275.236" transform="translate(-10.821 -3.391)" fill="#1a1a1a"/>
        <path id="Trazado_606030" data-name="Trazado 606030" d="M165.717,60.883c-3.606-.693-3.891-4.207-3.91-5-1.634-1.025-1.607-1.358-1.6-1.486.022-.268.329-.466,1.087-.934a7.876,7.876,0,0,0,1.207-.841.263.263,0,1,1,.368.375,8.077,8.077,0,0,1-1.3.913,8.112,8.112,0,0,0-.8.536,8.1,8.1,0,0,0,1.438,1.071c.119.392.017,4.157,3.562,4.844a.263.263,0,0,1-.05.52" transform="translate(-10.523 -3.452)" fill="#1a1a1a"/>
        <path id="Trazado_606031" data-name="Trazado 606031" d="M163.73,50.619a.273.273,0,0,1-.256-.319c.1-.449.168-.8.168-.8a.263.263,0,1,1,.515.1s-.072.352-.17.807a.265.265,0,0,1-.257.206" transform="translate(-10.737 -3.238)" fill="#1a1a1a"/>
        <path id="Trazado_606032" data-name="Trazado 606032" d="M167.317,64.08a7.633,7.633,0,0,1-.474-2.111.262.262,0,0,1,.231-.29.254.254,0,0,1,.291.23l.213,1.878a.262.262,0,0,1-.232.29l-.029,0" transform="translate(-10.958 -4.051)" fill="#1a1a1a"/>
        <path id="Trazado_606033" data-name="Trazado 606033" d="M164.286,56.677c-.092-.086-1.341.6-1.908.516a2.4,2.4,0,0,0,.188.845,5.087,5.087,0,0,0,1.72-1.36" transform="translate(-10.665 -3.722)" fill="#1a1a1a"/>
        <path id="Trazado_606034" data-name="Trazado 606034" d="M175.98,64.97a19,19,0,0,1-1.063-2.954.262.262,0,1,1,.5-.149l.812,2.766a.261.261,0,0,1-.178.325.254.254,0,0,1-.074.012" transform="translate(-11.488 -4.051)" fill="#1a1a1a"/>
        <path id="Trazado_606035" data-name="Trazado 606035" d="M165.753,68.98a33.713,33.713,0,0,1-1.523-3.78c.181-.346,4.413-2.263,7.335-3.344a.26.26,0,0,1,.337.153.264.264,0,0,1-.155.338c-2.525.934-6.038,2.5-6.943,2.906l1.2,3.378a.262.262,0,0,1-.16.334.289.289,0,0,1-.088.015" transform="translate(-10.787 -4.062)" fill="#1a1a1a"/>
        <path id="Trazado_606036" data-name="Trazado 606036" d="M170.607,61.174a46.641,46.641,0,0,1-5.613-.345c.1-.562,3.729-1.932,3.566-5.958a16.789,16.789,0,0,0-.335-2.31,17.057,17.057,0,0,1-.424-3.73,4.22,4.22,0,0,0-.171.691.258.258,0,0,1-.291.222l-5.269-.619c-.216-.366.929-5.542,5.533-5.542a7.409,7.409,0,0,1,1.873.258,14.023,14.023,0,0,1,1.992-.136c1.76,0,4.167.316,5.644,1.818a4.884,4.884,0,0,1,1.306,3.657c-.032,1.884-.174,3.261-.288,4.367-.292,2.837-.37,3.6,2.076,6-.167.452-4.294,1.392-7.534,1.572-.658.037-1.353.056-2.066.056m-4.67-.764c.99.1,2.722.24,4.67.24.7,0,1.388-.02,2.038-.054a50.859,50.859,0,0,0,6.854-1.017c-2.276-2.326-2.172-3.335-1.889-6.083.113-1.1.253-2.462.285-4.322a4.385,4.385,0,0,0-1.156-3.28c-1.349-1.373-3.611-1.662-5.27-1.662a13.472,13.472,0,0,0-1.963.137,8.348,8.348,0,0,0-1.9-.258c-3.634,0-4.884,3.494-5.176,4.531l4.729.557a14.545,14.545,0,0,1,1.321-3.155c.255-.458.414-.5.539-.426a.262.262,0,0,1,.1.357c-1.172,2.289-.747,4.52-.372,6.492a16.969,16.969,0,0,1,.344,2.385,6.039,6.039,0,0,1-3.147,5.559" transform="translate(-10.644 -2.863)" fill="#1a1a1a"/>
        <path id="Trazado_606037" data-name="Trazado 606037" d="M144.592,76.747a43.6,43.6,0,0,1-5.545-5.286,2.986,2.986,0,0,1-.4-3.3c-.276-1.174.719-3.09.762-3.173.471.014,1.138,1.507,1.138,1.507.264,1.225.9,2.911,1.535,2.991.375-.089.272-.44.2-.674a6.236,6.236,0,0,1-.2-.819c-.2-1.3-.409-2.625.363-2.829.7.256.859.834,1.063,1.695a4.344,4.344,0,0,0,.215.75c2.1,2.181,2.263,3.781,2.248,4.315l1.347.8a.262.262,0,0,1-.268.451l-1.487-.887a6.609,6.609,0,0,0-2.224-4.327,2.439,2.439,0,0,1-.342-.984,3.807,3.807,0,0,0-.456-1.312c-.277.088-.056,1.5.037,2.1a6.238,6.238,0,0,0,.206.894c.137.47.255.876.023,1.149a.87.87,0,0,1-.8.191c-1.259-.156-1.9-3.023-1.968-3.348l-.414-.921a4.226,4.226,0,0,0-.458,2.381,2.79,2.79,0,0,0,.291,3.032,52.921,52.921,0,0,0,5.3,5.139.262.262,0,0,1-.171.462" transform="translate(-9.085 -4.268)" fill="#1a1a1a"/>
        <path id="Trazado_606038" data-name="Trazado 606038" d="M162.854,90.376c-.293-.323-.217-.47-.078-.513.215-.1.373-.042.436.09a.26.26,0,0,1-.12.35.8.8,0,0,1-.238.073" transform="translate(-10.683 -5.899)" fill="#1a1a1a"/>
        <path id="Trazado_606039" data-name="Trazado 606039" d="M87.185,23.636a2.249,2.249,0,0,1-.875-.166,1.745,1.745,0,0,1-.961-.952.262.262,0,1,1,.5-.172,1.229,1.229,0,0,0,.68.647,3.205,3.205,0,0,0,2.462-.381c2.99-1.44.847-8.687.825-8.76a.262.262,0,0,1,.5-.151c.094.316,2.29,7.751-1.1,9.383a4.775,4.775,0,0,1-2.028.553" transform="translate(-5.605 -0.888)" fill="#1a1a1a"/>
        <path id="Trazado_606040" data-name="Trazado 606040" d="M95.885,27.045c-.169-.063-5.459-4.529-5.459-4.529a.262.262,0,0,1,.338-.4l4.952,4.18.678-3.32.222-4.257a.262.262,0,0,1,.262-.249.266.266,0,0,1,.263.277l-.227,4.3-.772,3.791c-.2.2-.228.21-.257.21" transform="translate(-5.933 -1.213)" fill="#1a1a1a"/>
        <path id="Trazado_606041" data-name="Trazado 606041" d="M97.27,18.175c-.19,0-.391-.007-.605-.027a18.753,18.753,0,0,1-2.119-.284.262.262,0,1,1,.1-.515,18.643,18.643,0,0,0,2.061.277,4.164,4.164,0,0,0,1.629-.121,2.312,2.312,0,0,0,1.486-1.647,14.39,14.39,0,0,0,.44-4.7c-.017-1.082-.045-1.939-.073-2.8l-.041-1.309a.26.26,0,0,1,.19-.316.263.263,0,0,1,.318.193c.017.115.059,1.414.059,1.414.027.861.056,1.722.069,2.582a15.48,15.48,0,0,1-.462,5.1A2.8,2.8,0,0,1,98.5,18a4,4,0,0,1-1.226.17" transform="translate(-6.196 -0.442)" fill="#1a1a1a"/>
        <path id="Trazado_606042" data-name="Trazado 606042" d="M98.01,13.639A.262.262,0,0,1,98,13.116c.331-.018.713-.052.96-.089a7.128,7.128,0,0,1-1.162-2.767,3.458,3.458,0,0,0-.178-.666.262.262,0,0,1,.483-.2,4.057,4.057,0,0,1,.21.765A6.829,6.829,0,0,0,99.569,13c-.041.415-.116.566-1.546.638H98.01" transform="translate(-6.41 -0.606)" fill="#1a1a1a"/>
        <path id="Trazado_606043" data-name="Trazado 606043" d="M90.6,9.9c-.272-.139-.3-.3-.211-.419a14.7,14.7,0,0,0,2.03-4.746A18.75,18.75,0,0,0,100.14,6.6a.263.263,0,0,1,0,.526,15.989,15.989,0,0,1-7.287-1.973,14.636,14.636,0,0,1-2.048,4.644.26.26,0,0,1-.21.107" transform="translate(-5.934 -0.311)" fill="#1a1a1a"/>
        <path id="Trazado_606044" data-name="Trazado 606044" d="M130.305,89.439H110.8a.263.263,0,0,1-.263-.263V69.669a.262.262,0,0,1,.263-.263h19.507a.262.262,0,0,1,.263.263V89.176a.263.263,0,0,1-.263.263m-19.244-.526h18.983V69.931H111.061Z" transform="translate(-7.26 -4.559)" fill="#1a1a1a"/>
        <path id="Trazado_606045" data-name="Trazado 606045" d="M84.389,56.921c-.3-.235-.268-.4-.149-.48l4.5-3.074a.263.263,0,1,1,.3.434l-4.5,3.074a.269.269,0,0,1-.148.046" transform="translate(-5.527 -3.502)" fill="#1a1a1a"/>
        <path id="Trazado_606046" data-name="Trazado 606046" d="M96.735,46.944c-.3-.235-.268-.4-.149-.48l35.6-24.344a3.515,3.515,0,0,1,4.871.914L141.134,29a3.511,3.511,0,0,1-.915,4.872l-4.407,3.012a.263.263,0,1,1-.3-.434l4.407-3.013a2.982,2.982,0,0,0,.777-4.14l-4.075-5.962a2.988,2.988,0,0,0-4.142-.777L96.882,46.9a.269.269,0,0,1-.148.046" transform="translate(-6.338 -1.413)" fill="#1a1a1a"/>
        <path id="Trazado_606047" data-name="Trazado 606047" d="M79.086,75.053a3.505,3.505,0,0,1-2.9-1.524l-4.075-5.962a3.509,3.509,0,0,1,.915-4.872l8.27-5.654a.263.263,0,1,1,.3.434l-8.27,5.654a2.982,2.982,0,0,0-.777,4.14l4.076,5.962a2.985,2.985,0,0,0,4.143.779L129.817,40.5a.263.263,0,0,1,.3.435L81.058,74.444a3.489,3.489,0,0,1-1.972.609" transform="translate(-4.696 -2.657)" fill="#1a1a1a"/>
        <path id="Trazado_606048" data-name="Trazado 606048" d="M81.224,71.81a4.25,4.25,0,1,1,2.395-.742,4.252,4.252,0,0,1-2.395.742m-.007-7.975A3.725,3.725,0,1,0,84.3,65.458a3.706,3.706,0,0,0-3.079-1.623" transform="translate(-5.056 -4.158)" fill="#1a1a1a"/>
        <path id="Trazado_606049" data-name="Trazado 606049" d="M98.168,52.21c-.3-.235-.267-.4-.148-.48l30.839-21.088a.263.263,0,0,1,.3.434L98.316,52.164a.272.272,0,0,1-.149.046" transform="translate(-6.433 -2.01)" fill="#1a1a1a"/>
        <path id="Trazado_606050" data-name="Trazado 606050" d="M96.735,54.65c-.3-.235-.268-.4-.149-.478l.456-.313a.259.259,0,0,1,.365.067.262.262,0,0,1-.068.364l-.455.313a.268.268,0,0,1-.149.047" transform="translate(-6.338 -3.534)" fill="#1a1a1a"/>
        <path id="Trazado_606051" data-name="Trazado 606051" d="M86.263,61.412c-.3-.235-.268-.4-.148-.48l8.752-5.984a.262.262,0,0,1,.3.434L86.41,61.367a.267.267,0,0,1-.148.046" transform="translate(-5.651 -3.606)" fill="#1a1a1a"/>
        <path id="Trazado_606052" data-name="Trazado 606052" d="M89.348,64.328c-.3-.234-.267-.4-.148-.48l41.962-28.692a.263.263,0,0,1,.3.435L89.5,64.283a.271.271,0,0,1-.149.045" transform="translate(-5.853 -2.306)" fill="#1a1a1a"/>
        <path id="Trazado_606053" data-name="Trazado 606053" d="M158.812,153.041H88.944a.263.263,0,0,1,0-.526h69.868a.263.263,0,0,1,0,.526" transform="translate(-5.825 -10.018)" fill="#1a1a1a"/>
        <path id="Trazado_606054" data-name="Trazado 606054" d="M176.635,65.515a.263.263,0,0,1-.263-.263V61.706a.262.262,0,1,1,.524,0v3.546a.262.262,0,0,1-.262.263" transform="translate(-11.584 -4.036)" fill="#1a1a1a"/>
        <path id="Trazado_606055" data-name="Trazado 606055" d="M158.325,141.88H89.484a.263.263,0,0,1,0-.526h68.841a.263.263,0,0,1,0,.526" transform="translate(-5.86 -9.284)" fill="#1a1a1a"/>
        <path id="Trazado_606056" data-name="Trazado 606056" d="M48.112,140.568H45.88a.263.263,0,0,1-.263-.263V121.639a.264.264,0,0,1,.263-.263h4.65a.263.263,0,0,1,0,.525H46.141v18.141h1.97a.263.263,0,0,1,0,.526" transform="translate(-2.996 -7.972)" fill="#1a1a1a"/>
        <path id="Trazado_606057" data-name="Trazado 606057" d="M154.315,121.9H91.564a.263.263,0,0,1,0-.526h62.752a.263.263,0,0,1,0,.526" transform="translate(-5.997 -7.972)" fill="#1a1a1a"/>
        <path id="Trazado_606058" data-name="Trazado 606058" d="M155.128,113.2H93.1a.263.263,0,0,1,0-.526h62.027a.263.263,0,0,1,0,.526" transform="translate(-6.098 -7.401)" fill="#1a1a1a"/>
        <path id="Trazado_606059" data-name="Trazado 606059" d="M50.544,113.2H46.1a.263.263,0,0,1,0-.526h4.441a.263.263,0,0,1,0,.526" transform="translate(-3.011 -7.401)" fill="#1a1a1a"/>
        <path id="Trazado_606060" data-name="Trazado 606060" d="M45.88,104.408a.263.263,0,0,1-.263-.263V60.267a.262.262,0,1,1,.524,0v43.878a.263.263,0,0,1-.262.263" transform="translate(-2.996 -3.941)" fill="#1a1a1a"/>
        <path id="Trazado_606061" data-name="Trazado 606061" d="M135.743,60.53H105.411a.263.263,0,0,1,0-.526h30.333a.263.263,0,0,1,0,.526" transform="translate(-6.906 -3.941)" fill="#1a1a1a"/>
        <path id="Trazado_606062" data-name="Trazado 606062" d="M76.636,59.883H37.152a.261.261,0,0,1-.262-.263V50.412a.262.262,0,0,1,.262-.263H66.857a.263.263,0,0,1,0,.526H37.414v8.682H76.636a.263.263,0,0,1,0,.526" transform="translate(-2.423 -3.294)" fill="#1a1a1a"/>
        <path id="Trazado_606063" data-name="Trazado 606063" d="M160.845,50.675h-41.03a.263.263,0,0,1,0-.526h41.03a.263.263,0,0,1,0,.526" transform="translate(-7.853 -3.294)" fill="#1a1a1a"/>
        <path id="Trazado_606064" data-name="Trazado 606064" d="M166.556,51.79a1.555,1.555,0,0,0-1.495-.96.264.264,0,0,1-.3-.226.261.261,0,0,1,.223-.294,1.712,1.712,0,0,1,1.812,1.124.263.263,0,0,1-.15.339.284.284,0,0,1-.094.017" transform="translate(-10.822 -3.304)" fill="#1a1a1a"/>
        <path id="Trazado_606065" data-name="Trazado 606065" d="M157.75,72.626a5.106,5.106,0,0,1-.774-.842c.027-.351,4.511-4.553,4.511-4.553a26.361,26.361,0,0,1,3.333,2.227.262.262,0,0,1-.314.42l-2.821-2.114-4.148,3.888.422.55a.264.264,0,0,1-.05.369.274.274,0,0,1-.16.054" transform="translate(-10.311 -4.416)" fill="#1a1a1a"/>
        <path id="Trazado_606066" data-name="Trazado 606066" d="M160,75.846c-.207-.1-2.418-2.979-2.418-2.979a.262.262,0,0,1,.416-.32l2.21,2.876a.262.262,0,0,1-.048.369.27.27,0,0,1-.16.054" transform="translate(-10.346 -4.758)" fill="#1a1a1a"/>
        <path id="Trazado_606067" data-name="Trazado 606067" d="M158.149,70.219c-.227-.13-1.033-1.33-1.717-1.741-.142-.085-.283-.156-.422-.226a3.512,3.512,0,0,1-1.836-1.889l-.228-.484c-1.34-2.855-1.5-3.391-1.1-3.58.148-.073.379-.183,1.77,1.33.119.13.37.406.611.7a2.943,2.943,0,0,0-.9-2.064c-.309-.19-.627-.385-.919-.571-1.093-.7-1.288-.957-1.274-1.2.262-.325.369-.378,1.056-.316.041,0,4.148.472,4.54,1.33.282.618,1.753,4.145,1.961,4.646l1.251,1.144c.1.41-.189.533-.344.4l-1.3-1.19c-.082-.135-1.747-4.134-2.041-4.778-.191-.307-2.383-.855-4.114-1.023-.121.1.131.284.553.555.288.184.6.377.908.563,1.233.752,1.2,3.319,1.2,3.427-.548-.033-.914-.534-1.578-1.259a12.365,12.365,0,0,0-.96-.958c.218.638.783,1.842,1.153,2.63l.227.486a2.869,2.869,0,0,0,1.429,1.556c.32.164.473.24.625.332a7.126,7.126,0,0,1,1.666,1.782.265.265,0,0,1-.073.364.261.261,0,0,1-.146.044" transform="translate(-9.993 -3.951)" fill="#1a1a1a"/>
        <path id="Trazado_606068" data-name="Trazado 606068" d="M158.953,76.274l-2.155-.058a.263.263,0,0,1-.253-.271.235.235,0,0,1,.268-.255l1.759.049-1.1-2.94c-.016-.236.1-.354.246-.354A29.852,29.852,0,0,1,159.2,75.92c-.08.313-.161.354-.245.354" transform="translate(-10.282 -4.758)" fill="#1a1a1a"/>
        <path id="Trazado_606069" data-name="Trazado 606069" d="M157.331,71.748a25.613,25.613,0,0,1-1.371-3.2.263.263,0,0,1,.492-.182l1.125,3.026a.262.262,0,0,1-.155.336.242.242,0,0,1-.092.018" transform="translate(-10.243 -4.479)" fill="#1a1a1a"/>
        <path id="Trazado_606070" data-name="Trazado 606070" d="M154.5,64.143a16.163,16.163,0,0,1-1.115-2.506.262.262,0,1,1,.491-.183l.869,2.335a.263.263,0,0,1-.246.354" transform="translate(-10.074 -4.025)" fill="#1a1a1a"/>
        <path id="Trazado_606071" data-name="Trazado 606071" d="M139.444,64.663c-.245-.17-4.1-10.29-4.1-10.29.25-.356,14.7-.044,14.7-.044.24.171,2.269,5.623,2.269,5.623a.262.262,0,1,1-.491.182l-1.967-5.285-13.878-.3,3.715,9.757a.264.264,0,0,1-.151.338.26.26,0,0,1-.094.018" transform="translate(-8.89 -3.56)" fill="#1a1a1a"/>
        <path id="Trazado_606072" data-name="Trazado 606072" d="M168.708,163a.264.264,0,0,1-.263-.251l-.129-3.06a.263.263,0,0,1,.525-.023l.128,3.06a.26.26,0,0,1-.251.273l-.01,0" transform="translate(-11.055 -10.471)" fill="#1a1a1a"/>
        <path id="Trazado_606073" data-name="Trazado 606073" d="M158.848,167.443a1.016,1.016,0,0,1-.913-.673.422.422,0,0,1,.279-.486l9.715-3.818a.259.259,0,0,1,.34.149.262.262,0,0,1-.149.34l-9.623,3.781a.663.663,0,0,0,.352.18l14.3-.35.115-7.262a.262.262,0,1,1,.524.008l-.119,7.515a.262.262,0,0,1-.257.259l-14.548.356Z" transform="translate(-10.373 -10.446)" fill="#1a1a1a"/>
        <path id="Trazado_606074" data-name="Trazado 606074" d="M162.128,165.947a4.513,4.513,0,0,1-.709-.047.262.262,0,0,1-.218-.3.259.259,0,0,1,.3-.218c2.548.4,12.009-2.257,12.105-2.285a.268.268,0,0,1,.323.18.262.262,0,0,1-.181.325c-.363.1-8.319,2.344-11.621,2.344" transform="translate(-10.588 -10.712)" fill="#1a1a1a"/>
        <path id="Trazado_606075" data-name="Trazado 606075" d="M163.86,156.353c-.262-.251-2.621-53.36-2.621-53.36a.26.26,0,0,1,.25-.273.263.263,0,0,1,.274.249l2.347,52.846,11.051-.538,2.1-33.159.362-8.91a.263.263,0,0,1,.525.021l-.363,8.916-2.118,33.4c-.249.244-11.8.807-11.8.807h-.013" transform="translate(-10.591 -6.747)" fill="#1a1a1a"/>
        <path id="Trazado_606076" data-name="Trazado 606076" d="M179.294,107.689a.265.265,0,0,1-.262-.273l.166-4.088a.263.263,0,0,1,.262-.253.266.266,0,0,1,.263.273l-.166,4.088a.264.264,0,0,1-.263.253" transform="translate(-11.759 -6.77)" fill="#1a1a1a"/>
        <path id="Trazado_606077" data-name="Trazado 606077" d="M197.843,139.223c-.089-.016-4.462-1.585-4.462-1.585a.263.263,0,1,1,.178-.494l4.374,1.569a.263.263,0,0,1-.089.51" transform="translate(-12.69 -9.007)" fill="#1a1a1a"/>
        <path id="Trazado_606078" data-name="Trazado 606078" d="M200.4,149.355a.6.6,0,0,1-.594-.486l-2.136-10.217a.263.263,0,0,1,.2-.312.271.271,0,0,1,.311.2l2.136,10.219c.165,0,2.045-12.793,2.045-12.793l-3.856-1.879-3.872-1.97a.263.263,0,0,1,.239-.469l3.867,1.969,4.023,1.962c.145.274-1.762,13.252-1.762,13.252a.6.6,0,0,1-.585.52Z" transform="translate(-12.775 -8.645)" fill="#1a1a1a"/>
        <path id="Trazado_606079" data-name="Trazado 606079" d="M199.732,146.145c-.221-.062-.3-.21-.249-.348.831-2.438-.2-11.473-.212-11.564a.263.263,0,0,1,.522-.061c.044.377,1.055,9.245.187,11.794a.262.262,0,0,1-.249.178" transform="translate(-13.088 -8.797)" fill="#1a1a1a"/>
        <path id="Trazado_606080" data-name="Trazado 606080" d="M162.472,129.2c-2.088-1.216-2.828-1.9-3.309-2.973-2.206-4.927,1.43-22.518,1.586-23.265a.27.27,0,0,1,.31-.2.262.262,0,0,1,.2.311c-.037.18-3.757,18.171-1.619,22.942.386.862.906,1.457,2.966,2.7a.262.262,0,0,1-.135.487" transform="translate(-10.408 -6.749)" fill="#1a1a1a"/>
        <path id="Trazado_606081" data-name="Trazado 606081" d="M191.118,142.328c-.154-.038-6.893-2.387-13.488-5.057a.262.262,0,0,1,.2-.485c5.828,2.358,11.771,4.466,13.1,4.934l2.517-10.755-14.955-7.831a.263.263,0,0,1,.243-.466l15.135,7.925c.135.293-2.5,11.531-2.5,11.531-.168.192-.212.2-.255.2" transform="translate(-11.656 -8.055)" fill="#1a1a1a"/>
        <path id="Trazado_606082" data-name="Trazado 606082" d="M178.5,101.089c-.175-.008-16.234-.739-19.46-.253-.3-.309,2-12.025,2-12.025a6.457,6.457,0,0,1-2.3.016c-3.612-.8-14.114-10.926-14.559-11.357-.027-.347,4.317-6.112,4.317-6.112.336-.073,9.534,4.976,9.534,4.976,7.194-12.206,15.869-11.7,15.954-11.695.342.247,4.542,4.386,4.5,9.824-.093,11.214.277,26.206.28,26.355-.127.243-.192.27-.262.27m-15.044-.946c5.331,0,13.15.336,14.775.408-.05-2.118-.361-15.72-.274-26.094.04-4.844-3.556-8.735-4.1-9.3-.952-.019-8.853.218-15.5,11.659a.264.264,0,0,1-.354.1l-9.223-5.063-4.067,5.4c1.383,1.323,10.909,10.351,14.14,11.062a6.221,6.221,0,0,0,2.339-.067c.519-.224,3.7-2.1,9.547-11a.262.262,0,1,1,.438.288c-6.223,9.486-9.425,11.074-9.559,11.138-.016.006-2.29,11.6-2.29,11.6.907-.093,2.385-.129,4.128-.129" transform="translate(-9.47 -4.245)" fill="#1a1a1a"/>
        <path id="Trazado_606083" data-name="Trazado 606083" d="M60.893,94.959a.27.27,0,0,1-.259-.3L62.109,84.41a.265.265,0,0,1,.3-.222.262.262,0,0,1,.221.3L61.152,94.733a.262.262,0,0,1-.26.226" transform="translate(-3.982 -5.529)" fill="#1a1a1a"/>
        <path id="Trazado_606084" data-name="Trazado 606084" d="M58.915,108.7a.27.27,0,0,1-.259-.3l1.476-10.249a.259.259,0,0,1,.3-.222.262.262,0,0,1,.222.3l-1.476,10.249a.262.262,0,0,1-.26.226" transform="translate(-3.852 -6.432)" fill="#1a1a1a"/>
        <path id="Trazado_606085" data-name="Trazado 606085" d="M56.936,122.442a.27.27,0,0,1-.26-.3l1.475-10.249a.262.262,0,1,1,.519.075l-1.475,10.248a.262.262,0,0,1-.259.226" transform="translate(-3.722 -7.335)" fill="#1a1a1a"/>
        <path id="Trazado_606086" data-name="Trazado 606086" d="M54.957,136.185a.27.27,0,0,1-.259-.3l1.475-10.25a.267.267,0,0,1,.3-.222.262.262,0,0,1,.221.3l-1.475,10.249a.263.263,0,0,1-.26.226" transform="translate(-3.593 -8.237)" fill="#1a1a1a"/>
        <path id="Trazado_606087" data-name="Trazado 606087" d="M52.978,149.925a.268.268,0,0,1-.259-.3L54.2,139.377a.262.262,0,1,1,.519.074L53.237,149.7a.264.264,0,0,1-.26.225" transform="translate(-3.462 -9.14)" fill="#1a1a1a"/>
        <path id="Trazado_606088" data-name="Trazado 606088" d="M48.308,165.662h-.918a1.832,1.832,0,0,1-1.828-1.83L57.847,78.486a1.82,1.82,0,0,1,1.828-1.794h.915a1.833,1.833,0,0,1,1.832,1.831L62.01,81.4a.268.268,0,0,1-.3.223.264.264,0,0,1-.222-.3l.41-2.841a1.3,1.3,0,0,0-1.311-1.269h-.915a1.308,1.308,0,0,0-1.308,1.306L46.081,163.869a1.3,1.3,0,0,0,1.308,1.267h.918a1.307,1.307,0,0,0,1.308-1.3l2.259-15.72a.262.262,0,1,1,.519.075l-2.257,15.683a1.821,1.821,0,0,1-1.828,1.793" transform="translate(-2.993 -5.037)" fill="#1a1a1a"/>
        <path id="Trazado_606089" data-name="Trazado 606089" d="M48.36,165.662h-.97a1.832,1.832,0,0,1-1.829-1.83L57.847,78.486a1.821,1.821,0,0,1,1.828-1.794l1.226.085a.262.262,0,0,1,.243.28.251.251,0,0,1-.28.243l-1.207-.084a1.305,1.305,0,0,0-1.288,1.307L46.082,163.869a1.3,1.3,0,0,0,1.308,1.267h.97a.263.263,0,0,1,0,.526" transform="translate(-2.993 -5.037)" fill="#1a1a1a"/>
        <path id="Trazado_606090" data-name="Trazado 606090" d="M80.45,165.668a1.832,1.832,0,0,1-1.828-1.83L90.907,78.492A1.722,1.722,0,0,1,92.7,76.781a.263.263,0,0,1,0,.526,1.206,1.206,0,0,0-1.272,1.222L79.142,163.875a1.3,1.3,0,0,0,1.308,1.267.263.263,0,0,1,0,.526" transform="translate(-5.164 -5.043)" fill="#1a1a1a"/>
        <path id="Trazado_606091" data-name="Trazado 606091" d="M81.772,125.752h-25.7a1.558,1.558,0,0,1,0-3.116H82.144a.263.263,0,0,1,0,.526H56.077a1.031,1.031,0,0,0-.729,1.762,1.019,1.019,0,0,0,.729.3h25.7a.263.263,0,0,1,0,.526" transform="translate(-3.581 -8.055)" fill="#1a1a1a"/>
        <path id="Trazado_606092" data-name="Trazado 606092" d="M79.8,165.663h-.919a1.833,1.833,0,0,1-1.829-1.831L89.34,78.487a1.821,1.821,0,0,1,1.828-1.795h.916a1.833,1.833,0,0,1,1.832,1.831L81.629,163.87a1.821,1.821,0,0,1-1.828,1.793M91.169,77.218a1.308,1.308,0,0,0-1.307,1.305L77.574,163.87a1.3,1.3,0,0,0,1.308,1.267H79.8a1.307,1.307,0,0,0,1.306-1.305L93.4,78.487a1.306,1.306,0,0,0-1.311-1.269Z" transform="translate(-5.061 -5.037)" fill="#1a1a1a"/>
        <path id="Trazado_606093" data-name="Trazado 606093" d="M48.946,165.574a1.74,1.74,0,0,1-1.818-1.736L59.414,78.492a1.722,1.722,0,0,1,1.793-1.711.263.263,0,0,1,0,.526,1.205,1.205,0,0,0-1.271,1.221L47.649,163.875a1.211,1.211,0,0,0,1.3,1.173.263.263,0,0,1,0,.526" transform="translate(-3.095 -5.043)" fill="#1a1a1a"/>
        <path id="Trazado_606094" data-name="Trazado 606094" d="M83.749,112.011h-25.7a1.558,1.558,0,0,1,0-3.116H84.124a.263.263,0,0,1,0,.526H58.052a1.032,1.032,0,1,0,0,2.064h25.7a.263.263,0,0,1,0,.526" transform="translate(-3.711 -7.152)" fill="#1a1a1a"/>
        <path id="Trazado_606095" data-name="Trazado 606095" d="M85.731,98.27H60.067a1.559,1.559,0,0,1,0-3.118H86.1a.263.263,0,0,1,0,.526H60.067a1.033,1.033,0,1,0,0,2.066H85.731a.263.263,0,0,1,0,.526" transform="translate(-3.843 -6.25)" fill="#1a1a1a"/>
        <path id="Trazado_606096" data-name="Trazado 606096" d="M87.709,84.528H62.041a1.558,1.558,0,0,1,0-3.116h26.04a.263.263,0,0,1,0,.526H62.041a1.032,1.032,0,1,0,0,2.065H87.709a.263.263,0,0,1,0,.525" transform="translate(-3.973 -5.347)" fill="#1a1a1a"/>
        <path id="Trazado_606097" data-name="Trazado 606097" d="M77.815,153.236H52.152a1.558,1.558,0,0,1,0-3.116H78.187a.263.263,0,0,1,0,.525H52.152a1.032,1.032,0,1,0,0,2.065H77.815a.263.263,0,0,1,0,.526" transform="translate(-3.323 -9.86)" fill="#1a1a1a"/>
        <path id="Trazado_606098" data-name="Trazado 606098" d="M79.8,139.495H54.117a1.558,1.558,0,0,1,0-3.116H80.167a.263.263,0,0,1,0,.526H54.117a1.032,1.032,0,1,0,0,2.064H79.8a.263.263,0,0,1,0,.526" transform="translate(-3.452 -8.958)" fill="#1a1a1a"/>
        <path id="Trazado_606099" data-name="Trazado 606099" d="M93.938,9.423c-.3-.213-.277-.378-.163-.468a3.243,3.243,0,0,1,2.539-.528.262.262,0,0,1,.2.31.265.265,0,0,1-.309.2,2.724,2.724,0,0,0-2.108.424.259.259,0,0,1-.163.057" transform="translate(-6.154 -0.549)" fill="#1a1a1a"/>
        <path id="Trazado_606100" data-name="Trazado 606100" d="M100.77,9.2a1.506,1.506,0,0,0-1.506-.253.266.266,0,0,1-.323-.181.261.261,0,0,1,.18-.324c1.3-.372,1.837.309,1.859.34a.261.261,0,0,1-.053.366.252.252,0,0,1-.157.052" transform="translate(-6.498 -0.547)" fill="#1a1a1a"/>
        <path id="Trazado_606101" data-name="Trazado 606101" d="M84.293,57.96a.266.266,0,0,1-.262-.278l.533-8.83c.349-.307,4.859-2.271,6.524-1.9.977.226,1.758.334,2.446.431.414.058.78.11,1.108.176a3.231,3.231,0,0,1,1.909,1.453.846.846,0,0,1-.047.82c-.121.188-.457.284-.916.041a2.658,2.658,0,0,0-.879-.257,12.662,12.662,0,0,1,2.4,2.638c.329.515.413.825.282,1.041a.911.911,0,0,1-.661.442,1.583,1.583,0,0,1-.7-.084c.289.4.451.764.355,1.006a.651.651,0,0,1-.518.391A2.776,2.776,0,0,1,93.66,54a10.88,10.88,0,0,0-2.184-.7c-1.284.055-3.843.178-4.963-.566l-1.682.389-.276,4.586a.264.264,0,0,1-.263.248m7.185-5.182a12.577,12.577,0,0,1,2.431.754,2.584,2.584,0,0,0,1.872,1c.129-.273-.585-1.147-1.406-1.919a.262.262,0,0,1,.354-.387c.472.423,1.413,1.072,1.929.99.276-.432-.727-1.816-1.877-2.856-.7-.63-1.088-.772-1.17-.764a.253.253,0,0,1-.291-.23.261.261,0,0,1,.23-.29,4.445,4.445,0,0,1,2.283.333c.016-.712-.915-1.26-1.3-1.338-.32-.064-.676-.114-1.077-.169-.664-.093-1.49-.209-2.49-.439-1.19-.27-4.524.994-5.894,1.581l-.213,3.538L86.51,52.2c1.125.757,3.772.631,4.64.591a2.782,2.782,0,0,0,.328-.013" transform="translate(-5.519 -3.081)" fill="#1a1a1a"/>
        <path id="Trazado_606102" data-name="Trazado 606102" d="M132.119,45.019c-.3-.243-.263-.406-.141-.484a21.726,21.726,0,0,0,2.063-1.4c4.164-2.78,3.982-6.333,3.314-7.834-.273-.615-.58-.828-.676-.8a19.651,19.651,0,0,1,.237,3.419,12.834,12.834,0,0,1-1.419-2.709c-.937.859-1.259,3.928-1.3,5.095a.262.262,0,1,1-.524-.02c.019-.48.222-4.722,1.7-5.637.363.008.561.087.961,1.254a9.032,9.032,0,0,0-.166-1.31.5.5,0,0,1,.382-.6c.439-.12.935.308,1.287,1.1.728,1.639.952,5.492-3.39,8.378a15.965,15.965,0,0,1-2.184,1.511.266.266,0,0,1-.141.041" transform="translate(-8.663 -2.231)" fill="#1a1a1a"/>
        <path id="Trazado_606103" data-name="Trazado 606103" d="M83.94,22.387c-.261-.114-.3-.276-.224-.4,1.442-2.36,1.76-6.356,1.137-14.255A6.766,6.766,0,0,1,87.045,1.8,5.846,5.846,0,0,1,92.568.3,7.8,7.8,0,0,1,95.826.09c2.164.264,5.066,1.19,5.128,6.13a16.592,16.592,0,0,1-.818,4.321.256.256,0,0,1-.329.168.263.263,0,0,1-.169-.332,16.3,16.3,0,0,0,.791-4.152C100.375,1.748,97.9.871,95.749.608a7.33,7.33,0,0,0-3.117.213,5.535,5.535,0,0,0-5.223,1.358,6.206,6.206,0,0,0-2.034,5.513c.633,8.019.294,12.105-1.212,14.57a.265.265,0,0,1-.223.125" transform="translate(-5.496 0)" fill="#1a1a1a"/>
        <path id="Trazado_606104" data-name="Trazado 606104" d="M98.031,23.368a4.759,4.759,0,0,1-1.015-.118.263.263,0,0,1,.121-.511c.4.1,1.629.252,1.941-.266s.107-2.864-.1-4.214a.264.264,0,0,1,.22-.3.268.268,0,0,1,.3.222c.057.375.539,3.7.027,4.559a1.66,1.66,0,0,1-1.5.627" transform="translate(-6.359 -1.18)" fill="#1a1a1a"/>
        <path id="Trazado_606105" data-name="Trazado 606105" d="M128.545,50.2c-.283-.36-.188-.5-.046-.521.662-.117,2.824-1.695,4.241-2.823l-2.724-3.473a.262.262,0,0,1,.413-.322l2.883,3.677a.26.26,0,0,1-.043.365c-.367.3-3.63,2.908-4.679,3.094a.378.378,0,0,1-.046,0" transform="translate(-8.431 -2.822)" fill="#1a1a1a"/>
        <path id="Trazado_606106" data-name="Trazado 606106" d="M163.332,60.53H153.22a.263.263,0,0,1,0-.526h10.112a.263.263,0,0,1,0,.526" transform="translate(-10.047 -3.941)" fill="#1a1a1a"/>
        <path id="Trazado_606107" data-name="Trazado 606107" d="M46.433,151.69H37.152a.262.262,0,0,1-.262-.263V132.211a.262.262,0,1,1,.524,0v18.953h9.019a.263.263,0,0,1,0,.526" transform="translate(-2.423 -8.667)" fill="#1a1a1a"/>
        <path id="Trazado_606108" data-name="Trazado 606108" d="M37.152,111.079a.263.263,0,0,1-.262-.263V77.275a.262.262,0,1,1,.524,0v33.541a.263.263,0,0,1-.263.263" transform="translate(-2.423 -5.058)" fill="#1a1a1a"/>
        <path id="Trazado_606109" data-name="Trazado 606109" d="M37.152,68.034a.262.262,0,0,1-.262-.263v-7.5a.262.262,0,1,1,.524,0v7.5a.262.262,0,0,1-.263.263" transform="translate(-2.423 -3.941)" fill="#1a1a1a"/>
        <path id="Trazado_606110" data-name="Trazado 606110" d="M163.35,54.149a.637.637,0,0,1-.614-.7l.329-2.5a.621.621,0,1,1,1.231.163l-.33,2.5a.625.625,0,0,1-.617.54m.33-3.478a.359.359,0,0,0-.355.311l-.33,2.5a.359.359,0,0,0,.309.4.366.366,0,0,0,.4-.307l.33-2.5a.361.361,0,0,0-.309-.4l-.048,0" transform="translate(-10.689 -3.311)" fill="#1a1a1a"/>
        <path id="Trazado_606111" data-name="Trazado 606111" d="M168.578,53l-4.424-.446c.025-.261,4.437.184,4.437.184.11.211.053.262-.013.262" transform="translate(-10.782 -3.447)" fill="#1a1a1a"/>
        <path id="Trazado_606112" data-name="Trazado 606112" d="M36.446,97.832H26.416a.263.263,0,0,1,0-.526H36.446a.263.263,0,0,1,0,.526" transform="translate(-1.718 -6.391)" fill="#1a1a1a"/>
        <path id="Trazado_606113" data-name="Trazado 606113" d="M15.506,97.832H7.15a.263.263,0,0,1,0-.526h8.357a.263.263,0,0,1,0,.526" transform="translate(-0.452 -6.391)" fill="#1a1a1a"/>
        <path id="Trazado_606114" data-name="Trazado 606114" d="M192.635,97.832H180.768a.263.263,0,0,1,0-.526h11.868a.263.263,0,0,1,0,.526" transform="translate(-11.856 -6.391)" fill="#1a1a1a"/>
        <path id="Trazado_606115" data-name="Trazado 606115" d="M28.414,110.775c-.162-.037-8.47-2.667-11.585-10.646-2.54-6.507-1.009-14.626,4.549-24.135.484.081,7.277,34.388,7.277,34.388.034.274-.085.392-.229.392ZM21.483,76.863c-5.189,9.1-6.591,16.863-4.166,23.075,2.623,6.718,9.04,9.529,10.749,10.174Z" transform="translate(-1.027 -4.991)" fill="#1a1a1a"/>
        <path id="Trazado_606116" data-name="Trazado 606116" d="M15.749,128.615c-2.117,0-4.235-1.413-6.329-4.233a.262.262,0,0,1,.422-.311c3.015,4.061,6.049,5.034,9.016,2.886,2.15-1.554,2.957-3.478,2.4-5.722-1.526-6.146-12.571-12.92-18.78-14.012.281,1.016,1.117,3.9,2.387,7.19a.262.262,0,0,1-.49.188,78.591,78.591,0,0,1-2.511-7.635c6.544.555,18.3,7.681,19.9,14.145.612,2.47-.263,4.58-2.6,6.274a5.809,5.809,0,0,1-3.417,1.231" transform="translate(-0.123 -7.026)" fill="#1a1a1a"/>
        <path id="Trazado_606117" data-name="Trazado 606117" d="M34.33,131.353a6.119,6.119,0,0,1-2.7-.687c-2.511-1.24-3.689-3.138-3.5-5.646.511-6.757,11.384-16.4,17.649-18.392C46,107.9,43.23,131.353,34.33,131.353m11.214-24.092c-6.189,2.209-16.407,11.36-16.893,17.8-.172,2.272.907,4,3.208,5.136a5.59,5.59,0,0,0,2.472.632c7.82,0,10.8-20.392,11.214-23.566" transform="translate(-1.846 -7.004)" fill="#1a1a1a"/>
        <path id="Trazado_606118" data-name="Trazado 606118" d="M25.425,142.647c-5.739-19.772-16.233-29.8-16.337-29.9a.262.262,0,0,1,.359-.383c.107.1,10.7,10.222,16.232,29.951a.264.264,0,0,1-.182.324.318.318,0,0,1-.071.01" transform="translate(-0.591 -7.376)" fill="#1a1a1a"/>
        <path id="Trazado_606119" data-name="Trazado 606119" d="M29.294,143.831a.265.265,0,0,1-.263-.273l.488-12.994a.261.261,0,0,1,.262-.251.264.264,0,0,1,.263.273l-.488,12.992a.263.263,0,0,1-.262.253" transform="translate(-1.907 -8.559)" fill="#1a1a1a"/>
        <path id="Trazado_606120" data-name="Trazado 606120" d="M29.547,121.75a.263.263,0,0,1-.263-.256l-.253-8.567a.261.261,0,0,1,.254-.269.263.263,0,0,1,.269.255l.253,8.566a.264.264,0,0,1-.254.271Z" transform="translate(-1.907 -7.4)" fill="#1a1a1a"/>
        <path id="Trazado_606121" data-name="Trazado 606121" d="M32.842,142.636c-3.6-20.952,8.918-31.265,9.045-31.368a.267.267,0,0,1,.37.04.264.264,0,0,1-.042.37c-.124.1-12.408,10.236-9.113,30.655a.264.264,0,0,1-.22.3.278.278,0,0,1-.04,0" transform="translate(-2.114 -7.305)" fill="#1a1a1a"/>
        <path id="Trazado_606122" data-name="Trazado 606122" d="M29.491,144.61c-3.959,0-9.85-.563-9.85-2.114s5.891-2.115,9.85-2.115a36.526,36.526,0,0,1,6.577.5.261.261,0,0,1,.209.306.252.252,0,0,1-.306.209,36.08,36.08,0,0,0-6.479-.491c-6.122,0-9.325,1.034-9.325,1.589s3.2,1.588,9.325,1.588a37.155,37.155,0,0,0,6.54-.5.253.253,0,0,1,.306.208.262.262,0,0,1-.21.306,37.494,37.494,0,0,1-6.636.512" transform="translate(-1.29 -9.22)" fill="#1a1a1a"/>
        <path id="Trazado_606123" data-name="Trazado 606123" d="M29.659,166.879c-2.579,0-7.457-.347-7.457-1.654a.262.262,0,0,1,.524,0c0,.383,2.448,1.128,6.933,1.128s6.932-.745,6.932-1.128a.262.262,0,0,1,.524,0c0,1.307-4.877,1.654-7.456,1.654" transform="translate(-1.458 -10.835)" fill="#1a1a1a"/>
        <path id="Trazado_606124" data-name="Trazado 606124" d="M29.583,156.09c-4.115,0-8.349-.547-8.534-1.768.4.694,3.328,1.476,8.534,1.476,4.964,0,8.125-.786,8.208-1.515.151,1.251-4.213,1.806-8.208,1.806" transform="translate(-1.383 -10.134)" fill="#1a1a1a"/>
        <path id="Trazado_606125" data-name="Trazado 606125" d="M22.3,164c-.261-.233-2.653-21.349-2.653-21.349a.261.261,0,0,1,.231-.29.25.25,0,0,1,.29.23l2.394,21.117a.262.262,0,0,1-.231.29l-.03,0" transform="translate(-1.29 -9.351)" fill="#1a1a1a"/>
        <path id="Trazado_606126" data-name="Trazado 606126" d="M37.882,164.571c-.145-.162,1.174-11.791,1.174-11.791.289.032-1.03,11.661-1.03,11.661a.146.146,0,0,1-.144.13" transform="translate(-2.487 -10.035)" fill="#1a1a1a"/>
      </g>
    </g>
  </g>
</svg>
