<svg xmlns="http://www.w3.org/2000/svg" xmlns:xlink="http://www.w3.org/1999/xlink" width="130" height="128" viewBox="0 0 130 128">
  <defs>
    <clipPath id="clip-path">
      <rect id="Rectángulo_345981" data-name="Rectángulo 345981" width="77.437" height="67.117" fill="none"/>
    </clipPath>
    <clipPath id="clip-path-2">
      <rect id="Rectángulo_346352" data-name="Rectángulo 346352" width="21.275" height="19.331" fill="none"/>
    </clipPath>
    <clipPath id="clip-path-3">
      <rect id="Rectángulo_346354" data-name="Rectángulo 346354" width="45.395" height="8.777" transform="translate(0 0)" fill="none"/>
    </clipPath>
  </defs>
  <g id="Grupo_1015796" data-name="Grupo 1015796" transform="translate(-426 -4632)">
    <g id="Grupo_1015740" data-name="Grupo 1015740" transform="translate(0 -2866)">
      <g id="Grupo_1015374" data-name="Grupo 1015374" transform="translate(426 7498.33)">
        <g id="Grupo_1015448" data-name="Grupo 1015448" transform="translate(0 0)">
          <g id="Grupo_1014855" data-name="Grupo 1014855" transform="translate(0 0)">
            <path id="Unión_12" data-name="Unión 12" d="M93.064,121.744A65.571,65.571,0,0,1,65,128C29.1,128,0,99.347,0,64S29.1,0,65,0s65,28.655,65,64a63.154,63.154,0,0,1-15.237,41.175L123.691,128Z" transform="translate(0 -0.33)" fill="#a3bfe4"/>
            <ellipse id="Elipse_4842" data-name="Elipse 4842" cx="54" cy="54.5" rx="54" ry="54.5" transform="translate(11 8.67)" fill="#e3ecf7"/>
          </g>
        </g>
      </g>
      <g id="Grupo_1015725" data-name="Grupo 1015725" transform="translate(452.547 7528.607)">
        <path id="Trazado_605784" data-name="Trazado 605784" d="M177.724,503.114H131.657l6.239-4.235h33.59Z" transform="translate(-115.972 -439.446)" fill="#2697d3"/>
        <g id="Grupo_1015454" data-name="Grupo 1015454">
          <g id="Grupo_1015453" data-name="Grupo 1015453" clip-path="url(#clip-path)">
            <path id="Trazado_605785" data-name="Trazado 605785" d="M72.177,0H5.263A5.267,5.267,0,0,0,0,5.26V50.1a5.266,5.266,0,0,0,5.263,5.26H72.177a5.265,5.265,0,0,0,5.26-5.26V5.26A5.267,5.267,0,0,0,72.177,0m1.538,42.651a1.542,1.542,0,0,1-1.538,1.54H5.263a1.539,1.539,0,0,1-1.539-1.524s0-.011,0-.016V5.26A1.554,1.554,0,0,1,5.263,3.723H72.177A1.54,1.54,0,0,1,73.715,5.26Z" fill="#73b2e1"/>
            <path id="Trazado_605786" data-name="Trazado 605786" d="M100.647,31.6,31.816,71.4a1.538,1.538,0,0,1-.576-1.186c0-.005-.006-.012-.006-.017V32.8a1.554,1.554,0,0,1,1.54-1.533H99.69a1.529,1.529,0,0,1,.957.337" transform="translate(-27.513 -27.542)" fill="#f3f9ff"/>
            <path id="Trazado_605787" data-name="Trazado 605787" d="M105.532,35.291V72.685a1.545,1.545,0,0,1-1.54,1.539H37.077a1.557,1.557,0,0,1-.958-.337L104.95,34.1a1.514,1.514,0,0,1,.582,1.2" transform="translate(-31.816 -30.033)" fill="#fff"/>
            <rect id="Rectángulo_345980" data-name="Rectángulo 345980" width="33.59" height="4.074" transform="translate(21.924 55.359)" fill="#1f64ae"/>
            <path id="Trazado_605804" data-name="Trazado 605804" d="M131.183,534.424s-1.144,3.448,6.239,3.448h16.8v-3.448Z" transform="translate(-115.498 -470.756)" fill="#3874b9"/>
            <path id="Trazado_605805" data-name="Trazado 605805" d="M348.034,534.424s1.145,3.448-6.239,3.448H325v-3.448Z" transform="translate(-286.281 -470.756)" fill="#1f64ae"/>
          </g>
        </g>
      </g>
    </g>
    <g id="Grupo_1015795" data-name="Grupo 1015795" transform="translate(467.435 4656.908)">
      <g id="Grupo_1015794" data-name="Grupo 1015794" transform="translate(16.023 13)" clip-path="url(#clip-path-2)">
        <rect id="Rectángulo_346348" data-name="Rectángulo 346348" width="9.179" height="9.179" transform="translate(0 0)" fill="#f1511b"/>
        <rect id="Rectángulo_346349" data-name="Rectángulo 346349" width="9.179" height="9.179" transform="translate(10.134 0)" fill="#80cc28"/>
        <rect id="Rectángulo_346350" data-name="Rectángulo 346350" width="9.179" height="9.179" transform="translate(0 10.152)" fill="#00adef"/>
        <rect id="Rectángulo_346351" data-name="Rectángulo 346351" width="9.179" height="9.179" transform="translate(10.134 10.152)" fill="#fbbc09"/>
      </g>
    </g>
    <g id="Grupo_1015800" data-name="Grupo 1015800" transform="translate(468 4691.519)">
      <g id="Grupo_1015800-2" data-name="Grupo 1015800" transform="translate(0 0)" clip-path="url(#clip-path-3)">
        <path id="Trazado_606611" data-name="Trazado 606611" d="M45.395,3.977v-1.1H44.02V1.154l-.049.012-1.289.393-.025.012v1.3H40.619V2.148a1.163,1.163,0,0,1,.221-.773.78.78,0,0,1,.626-.258,1.575,1.575,0,0,1,.6.135l.049.025V.11L42.092.1a2.158,2.158,0,0,0-.761-.1,2.23,2.23,0,0,0-1.08.258,1.775,1.775,0,0,0-.737.737,2.231,2.231,0,0,0-.258,1.08v.8H38.3v1.1h.958V8.63h1.375V3.977h2.038V6.936c0,1.215.577,1.841,1.706,1.841a3.189,3.189,0,0,0,.577-.061,1.779,1.779,0,0,0,.43-.135l.012-.012V7.451l-.061.037a1.375,1.375,0,0,1-.27.123.839.839,0,0,1-.27.049.762.762,0,0,1-.589-.209,1.156,1.156,0,0,1-.184-.737V3.99h1.375ZM35.231,7.648a1.419,1.419,0,0,1-1.166-.491,2.08,2.08,0,0,1-.417-1.387,2.142,2.142,0,0,1,.417-1.424,1.435,1.435,0,0,1,1.154-.5,1.4,1.4,0,0,1,1.129.479,2.151,2.151,0,0,1,.405,1.412,2.317,2.317,0,0,1-.381,1.424,1.354,1.354,0,0,1-1.142.491m.061-4.91a3.061,3.061,0,0,0-2.246.823,3.1,3.1,0,0,0-.81,2.259,2.993,2.993,0,0,0,.786,2.16,2.88,2.88,0,0,0,2.124.8,2.942,2.942,0,0,0,2.2-.835,3.084,3.084,0,0,0,.81-2.234,3.022,3.022,0,0,0-.761-2.173,2.7,2.7,0,0,0-2.1-.8m-5.266,0a2.418,2.418,0,0,0-1.583.491,1.587,1.587,0,0,0-.614,1.277,1.794,1.794,0,0,0,.135.712,1.425,1.425,0,0,0,.405.54,3.8,3.8,0,0,0,.835.466,5.512,5.512,0,0,1,.687.319,1.153,1.153,0,0,1,.307.245.556.556,0,0,1,.086.331c0,.393-.295.577-.884.577a2.8,2.8,0,0,1-1.522-.528l-.061-.037V8.458l.025.012a3.925,3.925,0,0,0,.724.221,3.716,3.716,0,0,0,.773.086,2.711,2.711,0,0,0,1.682-.491,1.6,1.6,0,0,0,.626-1.313,1.519,1.519,0,0,0-.331-.994,2.73,2.73,0,0,0-1.142-.724,3.215,3.215,0,0,1-.81-.417.594.594,0,0,1-.16-.442.479.479,0,0,1,.209-.405A.911.911,0,0,1,30,3.83a2.313,2.313,0,0,1,.7.111,1.95,1.95,0,0,1,.6.282l.061.037V3.007L31.339,3a3.836,3.836,0,0,0-.614-.172,3.175,3.175,0,0,0-.7-.086m-5.782,4.91a1.419,1.419,0,0,1-1.166-.491,2.08,2.08,0,0,1-.417-1.387,2.142,2.142,0,0,1,.417-1.424,1.435,1.435,0,0,1,1.154-.5,1.4,1.4,0,0,1,1.129.479,2.151,2.151,0,0,1,.405,1.412,2.237,2.237,0,0,1-.393,1.424,1.314,1.314,0,0,1-1.129.491m.061-4.91a3.061,3.061,0,0,0-2.247.823,3.1,3.1,0,0,0-.81,2.259,2.972,2.972,0,0,0,.786,2.16,2.88,2.88,0,0,0,2.124.8,2.942,2.942,0,0,0,2.2-.835,3.084,3.084,0,0,0,.81-2.234A3.023,3.023,0,0,0,26.4,3.535a2.7,2.7,0,0,0-2.1-.8M19.174,3.867V2.872h-1.35V8.63h1.35V5.684a2.018,2.018,0,0,1,.344-1.228,1.036,1.036,0,0,1,.872-.466,1.709,1.709,0,0,1,.405.061,1.225,1.225,0,0,1,.319.123l.061.037V2.848l-.025-.012a1.473,1.473,0,0,0-.528-.086,1.413,1.413,0,0,0-.908.319,1.755,1.755,0,0,0-.516.773h-.025ZM15.393,2.737a3.361,3.361,0,0,0-1.645.393,2.664,2.664,0,0,0-1.092,1.117A3.583,3.583,0,0,0,12.288,5.9a3.029,3.029,0,0,0,.368,1.485,2.574,2.574,0,0,0,1.019,1.031,3.089,3.089,0,0,0,1.485.356A3.213,3.213,0,0,0,16.793,8.4l.012-.012V7.144l-.061.037a2.424,2.424,0,0,1-.663.344,1.945,1.945,0,0,1-.651.123,1.692,1.692,0,0,1-1.264-.491A1.942,1.942,0,0,1,13.7,5.782,1.979,1.979,0,0,1,14.19,4.37a1.674,1.674,0,0,1,1.277-.528,2.118,2.118,0,0,1,1.289.454l.061.037V3.02l-.012-.012a2.2,2.2,0,0,0-.626-.209,6.477,6.477,0,0,0-.786-.061m-4.051.135H9.992V8.63h1.35ZM10.68.417A.828.828,0,0,0,10.1.638a.752.752,0,0,0-.245.565.726.726,0,0,0,.245.552.864.864,0,0,0,1.154,0A.726.726,0,0,0,11.5,1.2a.76.76,0,0,0-.233-.565A.837.837,0,0,0,10.68.417M7.3,2.443V8.63H8.691V.589H6.776L4.345,6.555,1.989.589H0V8.63H1.3V2.443H1.35L3.842,8.63h.982L7.279,2.443Z" transform="translate(0 0)" fill="#706d6e"/>
      </g>
    </g>
  </g>
</svg>
